<svg width="120" height="37" viewBox="0 0 120 37" fill="none" xmlns="http://www.w3.org/2000/svg">
<g clip-path="url(#clip0_2_17178)">
<g clip-path="url(#clip1_2_17178)">
<mask id="mask0_2_17178" style="mask-type:luminance" maskUnits="userSpaceOnUse" x="0" y="0" width="120" height="37">
<path d="M0 0.304932H120V36.4173H0V0.304932Z" fill="white"/>
</mask>
<g mask="url(#mask0_2_17178)">
<path fill-rule="evenodd" clip-rule="evenodd" d="M118.032 17.961C117.776 17.9618 117.523 17.9121 117.286 17.8149C117.049 17.7177 116.834 17.5748 116.652 17.3943C116.471 17.2139 116.327 16.9995 116.228 16.7633C116.129 16.5272 116.078 16.2739 116.077 16.018V16.0043C116.077 14.9309 116.944 14.0363 118.045 14.0363C118.301 14.0356 118.555 14.0852 118.792 14.1825C119.028 14.2797 119.244 14.4227 119.425 14.6032C119.607 14.7836 119.751 14.9981 119.85 15.2342C119.948 15.4704 119.999 15.7237 120 15.9797V15.9934C120 16.2517 119.949 16.5076 119.85 16.7463C119.752 16.985 119.607 17.2019 119.424 17.3847C119.241 17.5674 119.024 17.7123 118.785 17.8112C118.547 17.9101 118.291 17.961 118.032 17.961ZM118.045 14.2314C117.581 14.2278 117.135 14.4085 116.805 14.7337C116.474 15.0589 116.286 15.502 116.282 15.9656V16.0043C116.282 16.9791 117.036 17.7636 118.034 17.7636C118.264 17.7651 118.492 17.7214 118.705 17.6348C118.918 17.5482 119.112 17.4205 119.276 17.2589C119.439 17.0974 119.569 16.9052 119.659 16.6934C119.748 16.4815 119.795 16.2541 119.796 16.0242V15.992C119.8 15.7641 119.758 15.5378 119.675 15.3259C119.591 15.1141 119.466 14.9208 119.307 14.7572C119.148 14.5936 118.959 14.4628 118.75 14.3724C118.54 14.2819 118.315 14.2335 118.088 14.23C118.072 14.2314 118.059 14.2314 118.045 14.2314ZM118.476 16.1942L119.031 16.9702H118.565L118.068 16.2593H117.637V16.9702H117.248V14.9158H118.165C118.641 14.9158 118.955 15.1609 118.955 15.5718C118.954 15.907 118.759 16.1144 118.476 16.1942ZM118.148 15.2671H117.637V15.9169H118.148C118.401 15.9169 118.552 15.7932 118.552 15.592C118.552 15.3819 118.4 15.2671 118.148 15.2671ZM93.6713 8.54057C93.1425 8.54039 92.6354 8.75013 92.2612 9.12367C91.8871 9.49721 91.6767 10.004 91.6762 10.5326C91.6762 11.6334 92.5677 12.5256 93.6689 12.5269C93.9309 12.5269 94.1904 12.4753 94.4324 12.3751C94.6745 12.2748 94.8944 12.1279 95.0797 11.9427C95.2649 11.7574 95.4118 11.5375 95.512 11.2955C95.6122 11.0535 95.6638 10.7941 95.6637 10.5322C95.6638 10.2703 95.6122 10.011 95.512 9.76902C95.4118 9.52705 95.2649 9.3072 95.0796 9.12201C94.8944 8.93683 94.6744 8.78996 94.4324 8.68978C94.1903 8.5896 93.9309 8.53808 93.6689 8.53817M95.0462 14.0614H92.2663C92.2123 14.0619 92.1607 14.0837 92.1228 14.1221C92.0848 14.1605 92.0636 14.2123 92.0637 14.2663V26.393C92.0633 26.4198 92.0683 26.4464 92.0783 26.4713C92.0883 26.4962 92.1032 26.5188 92.122 26.5379C92.1409 26.557 92.1634 26.5721 92.1881 26.5824C92.2129 26.5927 92.2395 26.598 92.2663 26.598H95.0475C95.1019 26.598 95.1541 26.5764 95.1925 26.5379C95.231 26.4995 95.2526 26.4474 95.2526 26.393V14.2663C95.2526 14.212 95.231 14.1598 95.1925 14.1214C95.1541 14.083 95.1019 14.0614 95.0475 14.0614M101.228 14.0723V13.6902C101.228 12.5592 101.661 12.0543 102.635 12.0543C103.214 12.0543 103.679 12.1695 104.203 12.3443C104.233 12.3548 104.266 12.3578 104.298 12.353C104.331 12.3482 104.361 12.3357 104.387 12.3166C104.414 12.2976 104.435 12.2724 104.45 12.2433C104.464 12.2143 104.472 12.1821 104.471 12.1496V9.8087C104.471 9.765 104.457 9.72249 104.431 9.68744C104.405 9.65239 104.368 9.62666 104.326 9.61402C103.577 9.38519 102.797 9.27306 102.014 9.28157C99.4464 9.28157 98.0887 10.7286 98.0887 13.4629V14.0514H96.7526C96.6986 14.0513 96.6469 14.0725 96.6085 14.1104C96.5701 14.1482 96.5482 14.1997 96.5475 14.2536V16.6555C96.5475 16.768 96.6387 16.8601 96.7526 16.8601H98.0887V26.3957C98.0887 26.5068 98.1789 26.598 98.2913 26.598H101.073C101.127 26.5974 101.178 26.5756 101.216 26.5372C101.254 26.4988 101.275 26.4469 101.275 26.393V16.8581H103.871L107.849 26.393C107.398 27.3928 106.954 27.5926 106.347 27.5926C105.856 27.5926 105.34 27.4452 104.812 27.1566C104.788 27.1434 104.761 27.1353 104.734 27.1327C104.706 27.1301 104.679 27.1331 104.652 27.1415C104.626 27.1508 104.601 27.1655 104.581 27.1846C104.56 27.2038 104.544 27.2271 104.532 27.2529L103.59 29.3183C103.568 29.365 103.565 29.4182 103.581 29.4672C103.597 29.5162 103.631 29.5573 103.676 29.5822C104.661 30.1155 105.55 30.343 106.647 30.343C108.7 30.343 109.836 29.3868 110.836 26.8129L115.661 14.3499C115.674 14.3191 115.679 14.2857 115.675 14.2525C115.672 14.2193 115.661 14.1875 115.642 14.1599C115.623 14.1323 115.598 14.1097 115.568 14.0943C115.539 14.0788 115.506 14.0709 115.473 14.0713H112.579C112.537 14.0719 112.496 14.0853 112.462 14.1099C112.427 14.1344 112.402 14.1688 112.388 14.2084L109.421 22.6757L106.171 14.2026C106.157 14.1641 106.131 14.1309 106.097 14.1073C106.064 14.0837 106.024 14.0706 105.983 14.0699H101.228M90.5664 14.0614H87.5074V10.9332C87.5074 10.8796 87.4861 10.8281 87.4482 10.7902C87.4102 10.7523 87.3588 10.731 87.3051 10.731H84.5211C84.4677 10.7316 84.4166 10.7531 84.3788 10.7909C84.341 10.8287 84.3195 10.8798 84.3189 10.9332V14.061H82.98C82.9534 14.061 82.9271 14.0662 82.9025 14.0763C82.8779 14.0865 82.8556 14.1013 82.8367 14.1201C82.8179 14.1389 82.803 14.1612 82.7928 14.1858C82.7826 14.2103 82.7774 14.2367 82.7774 14.2632V16.6548C82.7774 16.7676 82.8689 16.8598 82.98 16.8598H84.3189V23.0404C84.3189 25.5392 85.5614 26.8053 88.0162 26.8053C89.0136 26.8053 89.8399 26.6004 90.6199 26.1593C90.6514 26.1415 90.6776 26.1157 90.6958 26.0845C90.7141 26.0533 90.7237 26.0179 90.7238 25.9817V23.7077C90.7245 23.6727 90.716 23.6381 90.6993 23.6074C90.6826 23.5766 90.6582 23.5508 90.6284 23.5323C90.5987 23.5139 90.5646 23.5035 90.5296 23.5022C90.4947 23.501 90.4599 23.5088 90.4289 23.525C89.8937 23.7951 89.375 23.9188 88.7962 23.9188C87.9038 23.9188 87.5064 23.515 87.5064 22.6078V16.8615H90.565C90.5917 16.8618 90.6182 16.8568 90.6429 16.8468C90.6677 16.8369 90.6902 16.8221 90.7093 16.8034C90.7283 16.7847 90.7435 16.7625 90.7539 16.7379C90.7644 16.7134 90.7698 16.687 90.7701 16.6603V14.2673C90.7703 14.2407 90.7653 14.2142 90.7554 14.1895C90.7454 14.1647 90.7306 14.1422 90.7119 14.1232C90.6933 14.1041 90.671 14.0889 90.6464 14.0785C90.6219 14.0681 90.5955 14.0626 90.5688 14.0624C90.5674 14.0614 90.5674 14.0614 90.5664 14.0614ZM75.9024 13.8077C72.1563 13.8077 69.2174 16.6929 69.2174 20.3752C69.2174 24.0189 72.1351 26.8728 75.8561 26.8728C79.6162 26.8728 82.5624 23.999 82.5624 20.33C82.5624 16.6716 79.6375 13.8077 75.9024 13.8077ZM75.9024 24.0538C73.9087 24.0538 72.4039 22.4519 72.4039 20.3279C72.4039 18.1972 73.8562 16.6514 75.8561 16.6514C77.8639 16.6514 79.3738 18.2534 79.3738 20.3776C79.3738 22.5084 77.9163 24.0538 75.9024 24.0538ZM62.495 13.8077C60.9274 13.8077 59.6424 14.4247 58.5837 15.6883V14.266C58.5838 14.2121 58.5625 14.1604 58.5247 14.122C58.4868 14.0837 58.4353 14.0619 58.3814 14.0614H55.6001C55.5461 14.0619 55.4945 14.0837 55.4566 14.1221C55.4186 14.1605 55.3974 14.2123 55.3975 14.2663V30.0695C55.3975 30.1806 55.4887 30.2717 55.6001 30.2717H58.3814C58.4348 30.2711 58.4859 30.2496 58.5237 30.2118C58.5615 30.174 58.583 30.123 58.5837 30.0695V25.0824C59.6451 26.2693 60.9288 26.8506 62.495 26.8506C65.4051 26.8506 68.3499 24.6111 68.3499 20.3303C68.3499 16.0496 65.4062 13.8077 62.495 13.8077ZM65.1175 20.329C65.1175 22.5071 63.7738 24.0305 61.8501 24.0305C59.9475 24.0305 58.5137 22.4382 58.5137 20.329C58.5137 18.2198 59.9475 16.6278 61.8501 16.6278C63.7426 16.6278 65.1189 18.1838 65.1189 20.3293M48.9912 16.8704C45.8863 16.1294 45.3336 15.6092 45.3336 14.5172C45.3336 13.4852 46.3049 12.7915 47.7501 12.7915C49.1489 12.7915 50.5389 13.3176 51.9936 14.4024C52.0372 14.4346 52.0919 14.4482 52.1455 14.4403C52.1992 14.4323 52.2475 14.4034 52.2799 14.3599C52.2799 14.3599 52.2799 14.3585 52.2813 14.3585L53.7987 12.2205C53.8284 12.1784 53.841 12.1265 53.8338 12.0754C53.8266 12.0244 53.8002 11.978 53.76 11.9457C52.0275 10.5552 50.0763 9.88033 47.7963 9.88033C44.4411 9.88033 42.1001 11.8908 42.1001 14.7698C42.1001 17.8561 44.1199 18.9495 47.6126 19.7916C50.5838 20.4753 51.0864 21.0487 51.0864 22.0759C51.0864 23.2104 50.0726 23.9164 48.4389 23.9164C46.6262 23.9164 45.1488 23.3056 43.4938 21.8761C43.4523 21.8413 43.3992 21.8234 43.345 21.826C43.318 21.8279 43.2917 21.8353 43.2676 21.8477C43.2435 21.8602 43.2223 21.8774 43.2051 21.8984L41.5039 23.9205C41.4867 23.9404 41.4737 23.9635 41.4654 23.9885C41.4572 24.0134 41.454 24.0397 41.456 24.066C41.458 24.0921 41.4651 24.1177 41.477 24.1411C41.4888 24.1646 41.5052 24.1855 41.5251 24.2026C43.3992 25.9004 45.8407 26.8364 48.3699 26.8266C51.9826 26.8266 54.3189 24.8524 54.3189 21.7986C54.3189 19.2168 52.7763 17.79 48.9912 16.8677M17.9887 0.378662C8.05371 0.378662 0 8.42953 0 18.361C0 28.2924 8.05371 36.3433 17.9887 36.3433C27.9237 36.3433 35.9774 28.2924 35.9774 18.361C35.9774 8.42953 27.9226 0.378662 17.9887 0.378662ZM26.2389 26.3145C26.0845 26.5681 25.8356 26.75 25.5471 26.8203C25.2585 26.8905 24.9539 26.8434 24.7001 26.6891C24.6987 26.6881 24.6974 26.6881 24.6963 26.6867C20.4713 24.1066 15.1574 23.5243 8.89509 24.9535C8.60535 25.0195 8.30126 24.9679 8.04954 24.8101C7.79782 24.6522 7.61904 24.4009 7.55246 24.1114C7.41531 23.5082 7.79246 22.9084 8.39486 22.7696C15.2462 21.2026 21.1251 21.8771 25.8651 24.7736C26.1188 24.9287 26.3005 25.178 26.3706 25.4668C26.4407 25.7557 26.3933 26.0605 26.2389 26.3145ZM28.4376 21.4185C28.243 21.735 27.9308 21.9614 27.5695 22.0482C27.2082 22.1349 26.8272 22.0749 26.5101 21.8812C21.6751 18.9097 14.3037 18.0498 8.58514 19.7844C8.23672 19.8682 7.86942 19.8157 7.55844 19.6376C7.24746 19.4596 7.01631 19.1695 6.91231 18.8267C6.8083 18.4838 6.8393 18.1142 6.99897 17.7935C7.15864 17.4728 7.4349 17.2252 7.7712 17.1014C14.305 15.1197 22.4263 16.0804 27.9775 19.4903C28.1347 19.5865 28.2715 19.7127 28.3799 19.8618C28.4883 20.0109 28.5663 20.1798 28.6094 20.359C28.6525 20.5382 28.6598 20.7241 28.631 20.9062C28.6021 21.0882 28.5377 21.2628 28.4414 21.4199C28.4414 21.4199 28.4414 21.4213 28.44 21.4213M28.6299 16.3203C22.8302 12.8793 13.2651 12.5619 7.73006 14.244C7.30504 14.3796 6.84358 14.3408 6.44718 14.1362C6.05078 13.9316 5.75192 13.578 5.61634 13.1531C5.48076 12.7283 5.51957 12.2669 5.72424 11.8707C5.9289 11.4744 6.28264 11.1757 6.70766 11.0401C6.72266 11.0346 6.73801 11.03 6.7536 11.0264C13.1064 9.09581 23.6702 9.47042 30.3439 13.4307C30.7275 13.6583 31.005 14.0289 31.1154 14.461C31.2258 14.8931 31.16 15.3513 30.9326 15.7349C30.7049 16.1184 30.3342 16.3958 29.9019 16.5062C29.4697 16.6165 29.0113 16.5508 28.6275 16.3234" fill="#ADBDCE"/>
</g>
</g>
</g>
<defs>
<clipPath id="clip0_2_17178">
<rect width="120" height="36.39" fill="white" transform="translate(0 0.304932)"/>
</clipPath>
<clipPath id="clip1_2_17178">
<rect width="120" height="36.33" fill="white" transform="translate(0 0.304932)"/>
</clipPath>
</defs>
</svg>
