<svg width="120" height="39" viewBox="0 0 120 39" fill="none" xmlns="http://www.w3.org/2000/svg">
<g clip-path="url(#clip0_2_17145)">
<mask id="mask0_2_17145" style="mask-type:luminance" maskUnits="userSpaceOnUse" x="0" y="0" width="120" height="39">
<path d="M0 0.646729H120V38.0215H0V0.646729Z" fill="white"/>
</mask>
<g mask="url(#mask0_2_17145)">
<path d="M17.7895 3.18072C19.8295 2.656 22.1396 3.70509 23.0695 5.59421C23.9849 7.40826 23.6547 9.59726 22.2446 11.0515C19.3495 13.9448 16.4695 16.8384 13.5747 19.7317C13.286 20.0482 13.0909 20.4388 13.0114 20.8597C12.932 21.2807 12.9711 21.7154 13.1246 22.1154C13.2747 22.6103 13.7095 22.9249 14.0396 23.2998C14.1596 23.4647 14.1596 23.8095 13.9196 23.8396C11.0695 24.2591 8.08456 22.6401 6.80948 20.0765C5.45965 17.5129 5.9249 14.1398 7.94948 12.0409L15.6 4.395C16.1849 3.81031 16.9495 3.39081 17.7895 3.18072ZM78.84 6.01405C80.1 5.62437 81.5698 6.47878 81.84 7.76813C82.2 9.08763 81.1951 10.5117 79.8449 10.6916C78.54 10.9315 77.1898 9.88207 77.1298 8.56257C77.0637 8.00366 77.1998 7.43954 77.5134 6.97215C77.827 6.50476 78.2976 6.16492 78.84 6.01405ZM70.32 6.56892H74.2951V27.3478H70.3049C70.32 20.4062 70.32 13.48 70.32 6.56892ZM40.38 12.8353C43.2 11.2314 47.1751 11.861 49.2 14.4695C48.42 15.2492 47.6098 15.9987 46.86 16.7932C46.2298 16.0436 45.3898 15.3842 44.4 15.2341C43.68 15.1443 42.8698 15.1741 42.2551 15.594C41.82 15.8637 41.64 16.5234 42 16.9433C42.4351 17.3779 43.0649 17.528 43.6351 17.7076C45.36 18.2175 47.2351 18.5925 48.6298 19.7917C50.1298 21.0961 50.2049 23.4945 49.2751 25.1437C48.24 26.943 46.08 27.7673 44.0698 27.7824C41.5498 27.8423 38.88 26.7782 37.4698 24.6043C38.2498 23.8246 39.0298 23.0449 39.8249 22.2655C40.2597 22.9519 40.8595 23.5186 41.5694 23.914C42.2794 24.3094 43.0771 24.5209 43.8898 24.5292C44.6098 24.5292 45.42 24.3942 45.9449 23.8544C46.3951 23.3896 46.32 22.5201 45.7351 22.2055C44.5951 21.5458 43.2449 21.4107 42.0151 20.946C40.7849 20.4813 39.5249 19.9116 38.7898 18.7872C38.2049 17.9177 38.1298 16.8384 38.2649 15.8339C38.4751 14.5445 39.2551 13.4649 40.38 12.8353ZM55.8 13.87C56.5305 13.1616 57.412 12.6277 58.3784 12.3083C59.3448 11.989 60.371 11.8925 61.38 12.0262C63.0384 12.2172 64.5722 12.9996 65.7 14.2299C68.6849 17.4978 68.4751 23.2248 65.0849 26.1332C62.52 28.3972 58.2151 28.352 55.8 25.8785V33.6893H51.9V12.4008H55.8V13.87ZM58.9649 15.6389C58.2 15.8037 57.5098 16.2088 56.9698 16.763C55.32 18.4873 55.3951 21.5907 57.1951 23.195C58.7098 24.6039 61.3498 24.5439 62.76 23.015C64.2898 21.3809 64.32 18.5925 62.8951 16.8682C61.9498 15.7441 60.36 15.3088 58.9649 15.6389ZM85.38 15.1741C86.52 13.5253 88.2751 12.4008 90.2551 12.0707C92.16 11.7561 94.2151 12.0107 95.88 13.0153C96.7649 13.54 97.5 14.2895 98.16 15.0843L95.7449 17.4978C95.1298 16.7633 94.38 16.0889 93.4351 15.8037C91.9649 15.339 90.2098 15.594 89.0849 16.7034C87.3898 18.4125 87.4351 21.5458 89.2351 23.1648C90.3298 24.1395 91.9351 24.3493 93.3151 23.9743C94.3049 23.7197 95.1151 23.0449 95.7449 22.2655C96.5551 23.075 97.38 23.8544 98.16 24.6941C97.1849 25.8333 96 26.8529 94.5449 27.3176C92.4298 28.0072 90.0151 27.9174 88.02 26.8827C86.1898 25.9532 84.84 24.1992 84.3 22.2202C83.6849 19.8815 84 17.213 85.38 15.1741ZM103.83 12.5355C106.035 11.681 108.66 11.8157 110.685 13.0753C112.41 14.1247 113.565 16.0138 113.88 17.9927C114.045 18.9969 113.955 20.0165 113.985 21.021H102.78C103.005 22.0105 103.485 22.9551 104.295 23.5846C105.555 24.6039 107.37 24.6492 108.825 24.0645C109.74 23.6895 110.4 22.9551 111.06 22.2504C111.825 23.0301 112.62 23.7797 113.43 24.5292C112.515 25.6986 111.345 26.7031 109.935 27.2275C108.48 27.7526 106.92 27.8872 105.405 27.6628C103.29 27.3327 101.43 26.0732 100.305 24.2444C98.9849 22.0407 98.7751 19.2519 99.6449 16.8381C100.365 14.8742 101.88 13.3001 103.83 12.5355ZM104.685 15.8489C103.83 16.3435 103.245 17.1832 102.915 18.0976C105.42 18.1126 107.925 18.1126 110.43 18.0976C110.295 17.2281 109.815 16.4635 109.11 15.9387C107.82 15.0394 106.005 15.0394 104.685 15.8489ZM77.52 12.4008H81.4649V27.3327H77.52V12.4008ZM21.2695 14.0647C24.4196 13.48 27.7646 15.5638 28.8 18.5623C29.7 20.9912 29.16 23.9143 27.3449 25.7884L18.6596 34.4686C16.9196 36.0729 13.9495 35.9979 12.2846 34.3189C10.7396 32.8945 10.3947 30.361 11.4895 28.5621C11.8347 27.9321 12.3895 27.4674 12.8849 26.9581C15.7947 24.0346 18.7347 21.1259 21.6295 18.2025C22.4996 17.333 22.4996 15.7588 21.5695 14.9342C21.3895 14.7094 20.9095 14.3646 21.2695 14.0647Z" fill="#ADBDCE"/>
</g>
</g>
<defs>
<clipPath id="clip0_2_17145">
<rect width="120" height="37.72" fill="white" transform="translate(0 0.639893)"/>
</clipPath>
</defs>
</svg>
