<svg width="120" height="33" viewBox="0 0 120 33" fill="none" xmlns="http://www.w3.org/2000/svg">
<g clip-path="url(#clip0_2_17134)">
<mask id="mask0_2_17134" style="mask-type:luminance" maskUnits="userSpaceOnUse" x="0" y="1" width="120" height="31">
<path d="M0 1.02441H120V31.7599H0V1.02441Z" fill="white"/>
</mask>
<g mask="url(#mask0_2_17134)">
<path fill-rule="evenodd" clip-rule="evenodd" d="M13.8391 1.11308C6.13784 1.37254 0.168701 8.00024 0.168701 15.7974L0.23213 31.0654C0.23213 31.4555 0.553387 31.7146 0.874301 31.7146H1.51647C4.53259 31.7146 7.22813 30.9352 9.02539 28.6617C11.0788 29.5066 13.3258 29.8312 15.7653 29.6372C22.8264 28.9226 28.2802 22.8803 28.4743 15.6689C28.6012 7.47995 21.9268 0.853622 13.8391 1.11308ZM2.1583 29.7006V27.1009C4.66116 26.7763 6.6511 24.5666 6.6511 21.9034V15.406C6.58767 11.1182 10.0536 7.60883 14.2889 7.60883C18.5242 7.60883 21.9902 11.0514 21.9902 15.3409C21.9902 19.6283 18.589 23.138 14.3524 23.2035C13.1969 23.2035 12.1066 22.944 11.1439 22.4889V19.436C12.0418 20.1503 13.1335 20.54 14.3524 20.54C17.1765 20.54 19.4873 18.2014 19.4873 15.3426C19.4873 12.4837 17.1765 10.1448 14.3524 10.1448C11.5286 10.1448 9.21773 12.4837 9.21773 15.3426V22.4906C9.21944 26.6478 6.13784 29.376 2.1583 29.7006ZM11.0805 15.408C11.0805 13.5894 12.493 12.1588 14.2889 12.1588C16.0862 12.1588 17.4974 13.5877 17.4974 15.408C17.4974 17.228 16.0848 18.6563 14.2889 18.6563C12.5568 18.6563 11.1439 17.2263 11.0805 15.408ZM14.3541 27.7517C12.8777 27.7517 11.4014 27.4923 10.1191 26.972C10.5034 26.1926 10.8247 25.4132 10.9533 24.5032C12.0453 24.8929 13.1352 25.152 14.3544 25.0886C19.6814 25.0886 23.9818 20.6706 23.9181 15.2771C23.9181 9.94911 19.6176 5.66168 14.2906 5.66168C8.96367 5.66168 4.66322 10.0797 4.72664 15.4732V21.9703C4.72664 23.5294 3.63499 24.8291 2.16002 25.1537L2.09659 16.1223V15.4728C2.09659 8.65112 7.55247 3.06366 14.2906 3.06366C21.0305 3.06366 26.4847 8.52225 26.5498 15.3443C26.5481 22.1643 21.0919 27.7517 14.3541 27.7517ZM34.8912 11.7691C34.8912 11.4445 35.1487 11.1837 35.4679 11.1837H36.9442C37.0208 11.1838 37.0966 11.199 37.1672 11.2286C37.2378 11.2581 37.3019 11.3013 37.3557 11.3558C37.4095 11.4102 37.452 11.4747 37.4807 11.5457C37.5094 11.6166 37.5238 11.6926 37.523 11.7691V12.8734H37.5864C37.9708 12.1591 38.5495 11.704 39.2551 11.3794C39.9607 11.0548 40.668 10.9246 41.5022 10.9246C42.3367 10.9246 43.1074 11.0548 43.813 11.3794C44.5186 11.704 45.097 12.0937 45.5452 12.614C46.0584 13.1343 46.3797 13.7834 46.6372 14.4977C46.8946 15.212 47.0215 15.9914 47.0215 16.8363C47.0215 17.6811 46.8929 18.4609 46.6372 19.1748C46.3797 19.8891 45.995 20.54 45.5452 21.0586C45.0953 21.5789 44.5186 22.0337 43.813 22.2931C43.1709 22.6177 42.4018 22.748 41.6311 22.748C41.1178 22.748 40.6042 22.6829 40.2182 22.5526C39.8335 22.422 39.4474 22.2931 39.1262 22.0974C38.8053 21.9014 38.5495 21.7074 38.3554 21.5117C38.1631 21.3163 37.9708 21.122 37.8422 20.9263H37.7788V27.1643C37.7788 27.4889 37.5213 27.75 37.2 27.75H35.4679C35.147 27.75 34.8912 27.4906 34.8912 27.1643V11.7691ZM44.1974 16.8363C44.1974 16.3811 44.134 15.9914 44.0054 15.5366C43.8765 15.1465 43.6207 14.7568 43.3632 14.4322C43.1057 14.1077 42.721 13.8468 42.3367 13.6528C41.8777 13.5194 41.4018 13.4535 40.9238 13.4571C40.4105 13.4571 39.9607 13.5222 39.5126 13.7162C39.1279 13.9119 38.7418 14.1714 38.4861 14.496C38.2286 14.8206 37.9725 15.1448 37.8439 15.6C37.715 15.9897 37.6516 16.4449 37.6516 16.8997C37.6516 17.3548 37.715 17.7445 37.8439 18.1997C37.9725 18.5894 38.2286 18.9791 38.4861 19.3034C38.7436 19.6283 39.1279 19.8895 39.5126 20.0831C39.8969 20.2788 40.3468 20.3426 40.9238 20.3426C41.437 20.3426 41.8869 20.2775 42.3367 20.0831C42.721 19.8877 43.1074 19.6283 43.3632 19.3037C43.6207 18.9791 43.8765 18.6545 44.0054 18.1997C44.134 17.6811 44.1974 17.2914 44.1974 16.8363ZM55.1092 21.0603C55.1092 20.9952 55.1092 20.9952 55.0457 20.9952C54.661 21.644 54.1478 22.0988 53.5056 22.4234C52.8638 22.6829 52.2216 22.8786 51.4526 22.8786C50.939 22.8786 50.4257 22.8134 49.9125 22.6829C49.3992 22.5526 49.0145 22.3583 48.6285 22.0337C48.2438 21.7746 47.9229 21.3849 47.7305 20.9952C47.473 20.54 47.4096 20.0848 47.4096 19.5011C47.4096 18.9157 47.5382 18.3317 47.7305 17.942C47.9229 17.4871 48.2438 17.1626 48.6285 16.838C49.0128 16.5789 49.3992 16.3177 49.9125 16.1237C50.4257 15.928 50.8756 15.7991 51.4526 15.734C51.9658 15.6689 52.4791 15.6034 53.0575 15.5383C53.5708 15.5383 54.0844 15.4732 54.5338 15.4732H55.2394V15.1482C55.2394 14.434 54.982 13.9137 54.5338 13.524C54.0206 13.1994 53.4422 13.0037 52.6732 13.0037C52.0961 13.0037 51.5177 13.1343 51.0045 13.3283C50.747 13.4585 50.3623 13.6528 50.1065 13.8485C49.849 14.0443 49.5298 13.9788 49.2724 13.7834L48.6302 13.1343C48.3727 12.8751 48.3727 12.4851 48.6936 12.2243C49.1434 11.8997 49.849 11.3794 50.3623 11.2488C51.1968 10.9897 52.031 10.794 52.9289 10.794C53.6997 10.794 54.4053 10.8591 54.9185 11.0531C55.4952 11.2488 55.945 11.4428 56.2663 11.7674C56.6506 12.0268 56.9081 12.3531 57.1005 12.7428C57.2774 13.0993 57.4278 13.4683 57.5503 13.8468C57.6137 14.2365 57.6792 14.5611 57.6792 14.9508V21.9034C57.68 21.9798 57.6657 22.0556 57.6371 22.1265C57.6085 22.1973 57.5662 22.2618 57.5125 22.3162C57.4589 22.3706 57.395 22.4139 57.3246 22.4435C57.2542 22.4731 57.1786 22.4885 57.1022 22.4889H55.8182C55.7417 22.4887 55.666 22.4734 55.5955 22.4439C55.525 22.4143 55.4611 22.371 55.4074 22.3166C55.3537 22.2621 55.3114 22.1976 55.2829 22.1267C55.2543 22.0557 55.2402 21.9799 55.2412 21.9034V21.0586H55.1092V21.0603ZM54.9802 17.4217H54.4018C54.0172 17.4217 53.5673 17.4217 53.1178 17.4868C52.6042 17.4868 52.1548 17.6174 51.7701 17.6829C51.3202 17.8131 50.9993 17.942 50.6781 18.2031C50.3572 18.4623 50.2286 18.7234 50.2286 19.1783C50.2286 19.4377 50.292 19.6986 50.4206 19.8274C50.5495 20.0228 50.6781 20.152 50.8704 20.2822C51.0628 20.4128 51.2551 20.4783 51.5126 20.5417C51.7701 20.6068 51.9624 20.6068 52.2182 20.6068C53.1813 20.6068 53.8869 20.3477 54.3367 19.8925C54.7865 19.4377 55.0423 18.7886 55.0423 18.0091V17.4234H54.9802V17.4217ZM58.51 13.5877C58.4334 13.5876 58.3576 13.5723 58.287 13.5427C58.2164 13.5131 58.1524 13.4699 58.0986 13.4154C58.0448 13.3609 58.0023 13.2963 57.9737 13.2254C57.945 13.1544 57.9307 13.0785 57.9316 13.002V11.8328C57.9316 11.5083 58.189 11.2471 58.51 11.2471H60.2421V8.58394C60.2421 8.25936 60.4996 7.99853 60.8191 7.99853H62.424C62.5006 7.99862 62.5763 8.01387 62.647 8.0434C62.7176 8.07294 62.7817 8.11617 62.8355 8.17061C62.8893 8.22504 62.9318 8.28959 62.9605 8.36054C62.9892 8.43149 63.0036 8.50742 63.0028 8.58394V11.2471H65.5056C65.5822 11.2472 65.658 11.2624 65.7287 11.292C65.7993 11.3216 65.8634 11.3648 65.9172 11.4193C65.971 11.4738 66.0135 11.5384 66.0422 11.6093C66.0709 11.6803 66.0852 11.7563 66.0844 11.8328V13.002C66.0844 13.3265 65.8269 13.5877 65.5056 13.5877H63.0028V18.5908C63.0028 19.1762 63.1313 19.6293 63.3237 19.956C63.516 20.2802 63.9658 20.4759 64.5425 20.4759C64.8 20.4759 65.0558 20.4759 65.377 20.4108C65.698 20.3457 66.0826 20.541 66.0826 20.9311V22.1005C66.0826 22.3596 65.9537 22.6208 65.698 22.6859C65.5056 22.7511 65.2481 22.8162 64.9924 22.8162C64.5425 22.8816 64.1582 22.8816 63.8369 22.8816C63.0662 22.8816 62.4895 22.8165 61.9759 22.6225C61.5264 22.4265 61.1417 22.2325 60.8842 21.8428C60.6268 21.5182 60.4344 21.0634 60.3076 20.6082C60.1786 20.0879 60.1786 19.5042 60.1786 18.8533V13.6563H58.51V13.5877ZM69.6137 12.6774C69.6137 12.7425 69.6137 12.7425 69.6137 12.6774C69.8712 12.2225 70.2559 11.8328 70.8326 11.4428C71.4113 11.0531 72.1169 10.8574 72.9511 10.8574C73.7218 10.8574 74.364 10.9876 74.8773 11.2471C75.3905 11.5065 75.8404 11.8328 76.1616 12.2225C76.4825 12.6123 76.7383 13.1325 76.8672 13.6511C76.9958 14.1714 77.0592 14.7551 77.0592 15.3409V21.9034C77.0592 22.2277 76.8017 22.4889 76.4825 22.4889H74.8773C74.8007 22.4887 74.725 22.4734 74.6544 22.4439C74.5838 22.4143 74.5198 22.3711 74.466 22.3167C74.4122 22.2622 74.3698 22.1977 74.3411 22.1268C74.3124 22.0558 74.298 21.9799 74.2989 21.9034V16.7708C74.2989 16.4462 74.2989 16.1216 74.2354 15.7319C74.2354 15.3422 74.1065 14.9522 73.9776 14.6279C73.849 14.3034 73.6567 13.9788 73.3358 13.7831C73.0783 13.5236 72.6936 13.4585 72.1804 13.4585C71.7305 13.4585 71.3462 13.5236 71.0249 13.7176C70.704 13.8482 70.4482 14.1073 70.2542 14.3668C70.0618 14.6259 69.8695 14.9522 69.8044 15.2768C69.7409 15.6014 69.6758 15.9911 69.6758 16.3808V21.9031C69.6758 22.2273 69.418 22.4885 69.0987 22.4885H67.4935C67.4171 22.4883 67.3414 22.473 67.271 22.4434C67.2005 22.4138 67.1366 22.3706 67.0829 22.3161C67.0293 22.2617 66.987 22.1971 66.9585 22.1262C66.93 22.0553 66.9158 21.9795 66.9168 21.9031V5.26958C66.9168 4.94534 67.1743 4.68417 67.4935 4.68417H69.0987C69.42 4.68417 69.6758 4.94362 69.6758 5.26992V12.677L69.6137 12.6774ZM78.7934 5.27198C78.7934 4.9474 79.0509 4.68622 79.3701 4.68622H80.9753C81.2962 4.68622 81.552 4.94568 81.552 5.27198V21.9052C81.552 22.2294 81.2945 22.4906 80.9753 22.4906H79.3701C79.2936 22.4904 79.218 22.4751 79.1475 22.4455C79.077 22.4159 79.0132 22.3726 78.9595 22.3182C78.9059 22.2637 78.8636 22.1992 78.8351 22.1283C78.8065 22.0574 78.7924 21.9816 78.7934 21.9052V5.27163V5.27198ZM83.413 11.7691C83.413 11.4445 83.6705 11.1837 83.9897 11.1837H85.595C85.9159 11.1837 86.1717 11.4428 86.1717 11.7691V21.9052C86.1717 22.2294 85.9142 22.4906 85.595 22.4906H83.9897C83.9133 22.4904 83.8376 22.4751 83.7672 22.4455C83.6967 22.4159 83.6328 22.3726 83.5792 22.3182C83.5255 22.2637 83.4832 22.1992 83.4547 22.1283C83.4262 22.0574 83.412 21.9816 83.413 21.9052V11.7691ZM83.0284 7.28596C83.0284 6.83079 83.2207 6.44109 83.5416 6.11651C83.8629 5.79227 84.3127 5.59622 84.826 5.59622C85.3392 5.59622 85.789 5.7268 86.11 6.05138C86.4309 6.37597 86.6232 6.76567 86.6232 7.28596C86.6232 7.80625 86.4309 8.19595 86.11 8.52053C85.789 8.84512 85.3392 8.9757 84.826 8.9757C84.3127 8.9757 83.8629 8.77965 83.5416 8.45541C83.1573 8.13083 83.0284 7.74113 83.0284 7.28596ZM98.8824 11.1837C99.2037 11.1837 99.4594 11.4428 99.4594 11.7691V21.5151C99.4594 22.554 99.3322 23.464 99.0747 24.3088C98.819 25.1537 98.4326 25.868 97.9193 26.3883C97.4061 26.9737 96.7639 27.4268 95.9297 27.7535C95.159 28.0777 94.1976 28.2083 93.1056 28.2083C92.0791 28.2083 91.0526 28.078 90.1529 27.8186C89.5742 27.6229 88.6128 27.1043 88.0344 26.7146C87.7769 26.5189 87.7135 26.1288 87.9058 25.8697L88.8689 24.57C89.0609 24.3106 89.4456 24.2454 89.7665 24.4394C90.1512 24.6985 90.6645 25.0886 91.0509 25.2843C91.7164 25.5852 92.4386 25.7403 93.169 25.7391C93.8112 25.7391 94.3882 25.674 94.8377 25.48C95.2875 25.2843 95.6722 25.0248 95.9297 24.7003C96.1872 24.3757 96.3795 23.986 96.5081 23.5312C96.637 23.076 96.7005 22.5557 96.7005 21.9717V21.1271H96.637C96.2523 21.7129 95.674 22.1026 95.0318 22.3617C94.3899 22.6212 93.6843 22.7514 92.9787 22.7514C92.1442 22.7514 91.3735 22.6212 90.6679 22.2966C89.9623 21.972 89.3839 21.5823 88.8706 21.062C88.357 20.5417 87.9727 19.958 87.7152 19.242C87.4577 18.5277 87.3305 17.748 87.3305 16.9686C87.3305 16.1237 87.4594 15.3439 87.7152 14.63C87.9727 13.9157 88.357 13.2648 88.8069 12.7463C89.3201 12.226 89.8989 11.7708 90.5393 11.5117C91.2446 11.1871 92.0157 11.0565 92.8498 11.0565C93.6206 11.0565 94.3899 11.1871 95.0952 11.5117C95.8008 11.8363 96.3144 12.3566 96.7639 13.0054H96.8277V11.9017C96.8277 11.5768 97.0852 11.3156 97.4044 11.3156H98.8807V11.1837H98.8824ZM93.4903 13.4588C92.977 13.4588 92.5272 13.524 92.1425 13.718C91.7582 13.9137 91.3718 14.1077 91.116 14.4322C90.8585 14.6917 90.6027 15.0814 90.4104 15.4711C90.2181 15.8608 90.1529 16.3811 90.1529 16.8363C90.1529 17.2914 90.2163 17.7463 90.4104 18.136C90.6027 18.5257 90.7951 18.8503 91.116 19.1748C91.4369 19.4994 91.7582 19.6951 92.1425 19.8891C92.5272 20.0848 92.977 20.1486 93.4269 20.1486C93.9401 20.1486 94.3899 20.0835 94.8394 19.8891C95.2241 19.6938 95.6105 19.4994 95.8663 19.1748C96.1238 18.9157 96.3795 18.5257 96.5081 18.1363C96.637 17.7463 96.7656 17.2914 96.7656 16.8363C96.7656 15.8608 96.4447 15.018 95.868 14.4322C95.3513 13.718 94.5168 13.4588 93.4903 13.4588ZM103.952 12.6774C103.952 12.7425 104.017 12.7425 103.952 12.6774C104.209 12.2225 104.594 11.8328 105.172 11.4428C105.749 11.0531 106.455 10.8574 107.289 10.8574C108.06 10.8574 108.702 10.9876 109.215 11.2471C109.729 11.5065 110.179 11.8328 110.5 12.2225C110.821 12.6123 111.076 13.1325 111.205 13.6511C111.334 14.1714 111.397 14.7551 111.397 15.3409V21.9034C111.397 22.2277 111.14 22.4889 110.821 22.4889H109.215C109.139 22.4887 109.063 22.4734 108.993 22.4439C108.922 22.4143 108.858 22.3711 108.804 22.3167C108.75 22.2622 108.708 22.1977 108.679 22.1268C108.651 22.0558 108.636 21.9799 108.637 21.9034V16.7708C108.637 16.4462 108.637 16.1216 108.574 15.7319C108.574 15.3422 108.445 14.9522 108.318 14.6279C108.189 14.3034 107.997 13.9788 107.676 13.7831C107.418 13.5236 107.033 13.4585 106.52 13.4585C106.07 13.4585 105.686 13.5236 105.365 13.7176C105.044 13.8482 104.786 14.1073 104.594 14.3668C104.402 14.6259 104.209 14.9522 104.146 15.2768C104.081 15.6014 104.017 15.9911 104.017 16.3808V21.9031C104.017 22.2273 103.76 22.4885 103.439 22.4885H101.835C101.759 22.4884 101.683 22.4732 101.612 22.4436C101.542 22.4141 101.478 22.3709 101.424 22.3164C101.37 22.262 101.328 22.1975 101.299 22.1265C101.27 22.0556 101.256 21.9796 101.257 21.9031V5.26958C101.257 4.94534 101.514 4.68417 101.835 4.68417H103.439C103.515 4.68425 103.591 4.69951 103.662 4.72907C103.732 4.75863 103.796 4.80189 103.85 4.85636C103.904 4.91083 103.947 4.97543 103.975 5.04641C104.004 5.1174 104.018 5.19336 104.017 5.26992V12.677L103.952 12.6774ZM112.424 13.5877C112.348 13.5876 112.272 13.5723 112.201 13.5427C112.131 13.5131 112.067 13.4698 112.013 13.4153C111.96 13.3608 111.917 13.2962 111.889 13.2253C111.86 13.1543 111.846 13.0784 111.847 13.002V11.8328C111.846 11.7564 111.861 11.6806 111.889 11.6097C111.918 11.5389 111.96 11.4743 112.014 11.4199C112.067 11.3654 112.131 11.3221 112.202 11.2925C112.272 11.2628 112.348 11.2474 112.424 11.2471H114.158V8.58394C114.158 8.25936 114.414 7.99853 114.735 7.99853H116.34C116.661 7.99853 116.917 8.25765 116.917 8.58394V11.2471H119.42C119.496 11.2472 119.572 11.2625 119.643 11.2921C119.713 11.3217 119.777 11.3649 119.831 11.4194C119.885 11.4739 119.927 11.5385 119.956 11.6094C119.985 11.6804 119.999 11.7563 119.998 11.8328V13.002C119.998 13.3265 119.741 13.5877 119.42 13.5877H116.917V18.5908C116.917 19.1762 117.046 19.6293 117.238 19.956C117.43 20.2802 117.88 20.4759 118.457 20.4759C118.714 20.4759 118.97 20.4759 119.291 20.4108C119.612 20.3457 119.998 20.541 119.998 20.9311V22.1005C119.998 22.3596 119.804 22.6208 119.612 22.6859C119.42 22.7511 119.164 22.8162 118.907 22.8162C118.457 22.8816 118.072 22.8816 117.751 22.8816C116.98 22.8816 116.403 22.8165 115.89 22.6225C115.44 22.4265 115.056 22.2325 114.799 21.8428C114.543 21.5182 114.35 21.0634 114.221 20.6082C114.093 20.0879 114.093 19.5042 114.093 18.8533V13.6563H112.424V13.5877Z" fill="#ADBDCE"/>
</g>
</g>
<defs>
<clipPath id="clip0_2_17134">
<rect width="120" height="31.19" fill="white" transform="translate(0 0.905029)"/>
</clipPath>
</defs>
</svg>
