<svg width="120" height="17" viewBox="0 0 120 17" fill="none" xmlns="http://www.w3.org/2000/svg">
<g clip-path="url(#clip0_2_17167)">
<g clip-path="url(#clip1_2_17167)">
<mask id="mask0_2_17167" style="mask-type:luminance" maskUnits="userSpaceOnUse" x="0" y="0" width="120" height="17">
<path d="M0 0.648926H120V16.2955H0V0.648926Z" fill="white"/>
</mask>
<g mask="url(#mask0_2_17167)">
<path d="M102.519 6.85811V16.2865H105.533V10.0011H116.556V16.2869H119.57V6.85811H102.519ZM105.189 3.80113H116.814C118.45 3.49979 119.613 2.03592 119.957 0.658447H102.045C102.39 2.03592 103.595 3.45694 105.189 3.80113ZM93.348 16.2869C94.8549 15.641 95.6729 14.5213 96.0175 13.2299H82.4544V0.701301H79.3975V16.2865H93.348V16.2869ZM56.7922 3.75828H67.5566C69.1927 3.2845 70.5278 2.03592 70.872 0.701301H53.8214V9.91475H67.7719V13.1438H56.8354C55.1133 13.6173 53.6493 14.7798 52.9173 16.2865H70.7859V6.85811H56.8354L56.7922 3.75828ZM30.2691 3.80113H41.8947C43.5309 3.49979 44.7363 2.03592 45.0377 0.658447H27.083C27.4275 2.03592 28.633 3.45694 30.2691 3.80113ZM30.2691 9.95795H41.8947C43.5309 9.65626 44.7363 8.19239 45.0377 6.81492H27.083C27.4275 8.19274 28.633 9.61341 30.2691 9.95795ZM30.2691 16.2865H41.8947C43.5309 15.9852 44.7363 14.5213 45.0377 13.1438H27.083C27.4275 14.5213 28.633 15.9852 30.2691 16.2865ZM0 0.701301C0.344571 2.07912 1.55006 3.45694 3.14331 3.80113H8.05166L8.30983 3.88718V16.244H11.3671V3.88718L11.6253 3.80148H16.5339C18.1701 3.37054 19.3327 2.07912 19.6773 0.701301V0.658447L0 0.701301Z" fill="#ADBDCE"/>
</g>
</g>
</g>
<defs>
<clipPath id="clip0_2_17167">
<rect width="120" height="15.75" fill="white" transform="translate(0 0.625)"/>
</clipPath>
<clipPath id="clip1_2_17167">
<rect width="120" height="15.77" fill="white" transform="translate(0 0.625)"/>
</clipPath>
</defs>
</svg>
