<svg width="120" height="31" viewBox="0 0 120 31" fill="none" xmlns="http://www.w3.org/2000/svg">
<g clip-path="url(#clip0_2_17156)">
<g clip-path="url(#clip1_2_17156)">
<mask id="mask0_2_17156" style="mask-type:luminance" maskUnits="userSpaceOnUse" x="0" y="0" width="120" height="31">
<path d="M0 0.874512H120V30.0062H0V0.874512Z" fill="white"/>
</mask>
<g mask="url(#mask0_2_17156)">
<path d="M85.5195 12.2239C83.7778 12.2239 82.5346 12.8187 81.9247 13.9451L81.5969 14.5552V12.5177H78.7629V24.9027H81.7437V17.5344C81.7437 15.7739 82.7006 14.764 84.3675 14.764C85.9574 14.764 86.8687 15.7475 86.8687 17.4611V24.9031H89.8509V16.9297C89.8509 13.9807 88.2322 12.2239 85.5195 12.2239ZM71.063 12.2239C67.5453 12.2239 65.3671 14.4185 65.3671 17.9509V19.6896C65.3671 23.0866 67.5706 25.1965 71.1189 25.1965C73.4921 25.1965 75.1553 24.3268 76.2021 22.5385L74.3541 21.4755C73.5806 22.5069 72.3453 23.1463 71.1199 23.1463C69.3237 23.1463 68.2515 22.0373 68.2515 20.1794V19.6872H76.5717V17.6332C76.5717 14.3424 74.411 12.2239 71.0654 12.2239H71.063ZM73.859 17.6849H68.2416V17.3877C68.2416 15.3488 69.2427 14.2238 71.0606 14.2238C72.8112 14.2238 73.8566 15.3323 73.8566 17.1903L73.859 17.6849ZM119.455 10.4788V8.1094H109.144V10.4788H112.759V22.5285H109.144V24.8976H119.455V22.5285H115.839V10.4784H119.455V10.4788ZM41.2728 7.76763C36.6679 7.76763 33.8047 10.6368 33.8047 15.2576V17.7559C33.8047 22.3753 36.6665 25.2458 41.2728 25.2458C45.8791 25.2458 48.7409 22.3753 48.7409 17.7559V15.2576C48.7395 10.632 45.8739 7.76763 41.2728 7.76763ZM45.66 17.9266C45.66 20.9946 44.0613 22.7538 41.2728 22.7538C38.4843 22.7538 36.887 20.9946 36.887 17.9269V15.0852C36.887 12.0176 38.4867 10.2587 41.2742 10.2587C44.0613 10.2587 45.6614 12.0176 45.6614 15.0852L45.66 17.9266ZM58.104 12.2239C56.5395 12.2239 55.1849 12.8718 54.4786 13.9567L54.1584 14.4503V12.5177H51.323V29.1639H54.3051V23.1346L54.6243 23.608C55.295 24.6028 56.6054 25.1965 58.1294 25.1965C60.7001 25.1965 63.2935 23.5168 63.2935 19.7633V17.6571C63.2935 14.9525 61.6951 12.2239 58.104 12.2239ZM60.3113 19.6179C60.3113 21.6133 59.147 22.8539 57.2736 22.8539C55.5267 22.8539 54.3079 21.5427 54.3079 19.6669V17.8039C54.3079 15.9055 55.537 14.5689 57.299 14.5689C59.1583 14.5689 60.3141 15.8081 60.3141 17.8039L60.3113 19.6179ZM98.0914 8.11043L92.075 24.9024H95.1041L96.2558 21.3031H103.172L103.184 21.3384L104.323 24.9024H107.351L101.324 8.10905L98.0914 8.11043ZM96.995 18.9351L99.709 10.4455L102.395 18.9351H96.995ZM27.9744 12.7984C28.3008 11.8189 28.414 10.7809 28.3067 9.75402C28.1993 8.72714 27.8737 7.73504 27.3518 6.84416C26.5768 5.49767 25.3946 4.43171 23.9752 3.7997C22.5558 3.1677 20.9725 3.00223 19.453 3.32712C18.7679 2.55425 17.9255 1.93665 16.9823 1.51567C16.039 1.09469 15.0167 0.880048 13.9838 0.886111C12.4297 0.882554 10.9147 1.37266 9.6573 2.28573C8.3999 3.1988 7.4651 4.48762 6.98777 5.96627C5.97606 6.17376 5.02032 6.59485 4.18449 7.20138C3.34867 7.80791 2.65202 8.5859 2.14114 9.4833C1.36204 10.8276 1.02965 12.3845 1.19181 13.9297C1.35397 15.4749 2.00232 16.9288 3.04354 18.0822C2.71843 19.0609 2.6058 20.0977 2.71317 21.1234C2.82053 22.1491 3.14543 23.1401 3.66617 24.0303C4.44027 25.3795 5.62306 26.448 7.04389 27.0816C8.46473 27.7153 10.0501 27.8812 11.5714 27.5556C12.2561 28.3273 13.0975 28.9442 14.0396 29.365C14.9817 29.7857 16.0027 30.0007 17.0345 29.9956C18.5886 29.9991 20.1036 29.509 21.361 28.5959C22.6184 27.6829 23.5532 26.394 24.0305 24.9154C25.0421 24.7078 25.9976 24.2867 26.8333 23.6802C27.6689 23.0736 28.3654 22.2957 28.8761 21.3984C29.6572 20.0545 29.9908 18.4972 29.8287 16.9514C29.6667 15.4056 29.0171 13.9512 27.9744 12.7984ZM17.0342 28.0972C15.758 28.0983 14.5221 27.6502 13.5432 26.8316C13.5864 26.8076 13.6701 26.7658 13.7181 26.7342L19.5151 23.3879C19.6606 23.3053 19.7814 23.1854 19.8651 23.0405C19.9488 22.8957 19.9924 22.7311 19.9913 22.5639V14.3907L22.4403 15.8044C22.4536 15.8106 22.465 15.8202 22.4735 15.8323C22.4819 15.8443 22.487 15.8583 22.4883 15.8729V22.6372C22.4883 24.0841 21.9139 25.4718 20.8913 26.4956C19.8686 27.5193 18.4813 28.0954 17.0342 28.0972ZM5.31429 23.0928C4.67543 21.9885 4.44486 20.6949 4.66286 19.4379C4.70572 19.4643 4.78183 19.5099 4.83497 19.5404L10.6337 22.8878C10.7781 22.9723 10.9423 23.0168 11.1096 23.0168C11.2769 23.0168 11.4411 22.9723 11.5855 22.8878L18.6597 18.798V21.6253C18.6609 21.6398 18.6585 21.6544 18.6525 21.6677C18.6465 21.6809 18.6371 21.6924 18.6254 21.701L12.7646 25.0823C11.5115 25.8037 10.0234 25.9988 8.6267 25.6246C7.23 25.2505 6.03876 24.3377 5.31429 23.0866V23.0928ZM3.79543 10.4369C4.43143 9.33107 5.43643 8.48426 6.63429 8.04495V14.935C6.63347 15.1022 6.67715 15.2666 6.76083 15.4114C6.84452 15.5561 6.9652 15.676 7.11052 15.7588L14.1864 19.8442L11.7281 21.263C11.7161 21.271 11.7023 21.276 11.6879 21.2773C11.6736 21.2786 11.6591 21.2763 11.6458 21.2705L5.7864 17.8875C4.53442 17.1633 3.62104 15.972 3.24679 14.5751C2.87255 13.1782 3.06801 11.6899 3.79029 10.4369H3.79543ZM23.9211 15.1195L16.8459 11.0348L19.2929 9.61973C19.3049 9.61176 19.3187 9.6069 19.3331 9.60558C19.3475 9.60427 19.3619 9.60654 19.3752 9.61219L25.2343 12.9945C26.1317 13.513 26.8628 14.2764 27.342 15.1953C27.8212 16.1142 28.0288 17.1505 27.9403 18.183C27.8518 19.2156 27.4709 20.2015 26.8424 21.0255C26.2138 21.8494 25.3634 22.4774 24.3909 22.8357V15.9473C24.3928 15.7798 24.35 15.6147 24.2668 15.4693C24.1836 15.3238 24.0631 15.2032 23.9177 15.1198L23.9211 15.1195ZM26.3606 11.4495C26.3174 11.4228 26.2416 11.3776 26.1885 11.3467L20.3897 7.9997C20.2454 7.9152 20.0811 7.87066 19.9138 7.87066C19.7466 7.87066 19.5823 7.9152 19.4379 7.9997L12.3624 12.0834V9.2574C12.3618 9.24283 12.3647 9.22832 12.3709 9.21509C12.377 9.20185 12.3862 9.19027 12.3977 9.1813L18.2571 5.79967C19.1549 5.28224 20.1816 5.03116 21.2169 5.07583C22.2522 5.1205 23.2534 5.45907 24.1033 6.05191C24.9532 6.64475 25.6166 7.46734 26.0159 8.42341C26.4153 9.37949 26.534 10.4295 26.3582 11.4506L26.3606 11.4495ZM11.027 16.4917L8.57623 15.078C8.56366 15.071 8.5529 15.0611 8.54481 15.0492C8.53671 15.0373 8.53151 15.0237 8.5296 15.0094V8.2448C8.52913 7.20821 8.82415 6.19295 9.38009 5.31798C9.93602 4.44301 10.7298 3.74456 11.6686 3.30447C12.6073 2.86438 13.652 2.70087 14.6803 2.8331C15.7086 2.96534 16.678 3.38784 17.4747 4.0511C17.4315 4.07509 17.3547 4.11691 17.2999 4.14845L11.5029 7.49443C11.3577 7.57727 11.2371 7.6972 11.1535 7.84193C11.0698 7.98667 11.0262 8.15101 11.027 8.31816V16.4917ZM12.3573 13.6225L15.5091 11.8023L18.6597 13.6225V17.2595L15.5078 19.0797L12.3559 17.2595L12.3573 13.6225Z" fill="#ADBDCE"/>
</g>
</g>
</g>
<defs>
<clipPath id="clip0_2_17156">
<rect width="120" height="29.5" fill="white" transform="translate(0 0.75)"/>
</clipPath>
<clipPath id="clip1_2_17156">
<rect width="120" height="29.48" fill="white" transform="translate(0 0.75)"/>
</clipPath>
</defs>
</svg>
