<svg width="120" height="37" viewBox="0 0 120 37" fill="none" xmlns="http://www.w3.org/2000/svg">
<g clip-path="url(#clip0_2_17189)">
<g clip-path="url(#clip1_2_17189)">
<mask id="mask0_2_17189" style="mask-type:luminance" maskUnits="userSpaceOnUse" x="0" y="0" width="120" height="37">
<path d="M0 36.5894H120V0.458824H0V36.5894Z" fill="white"/>
</mask>
<g mask="url(#mask0_2_17189)">
<path fill-rule="evenodd" clip-rule="evenodd" d="M74.4405 28.7071C67.4932 33.8427 57.3885 36.5789 48.673 36.5789C36.4629 36.5789 25.5161 32.0746 17.1796 24.5814C16.548 23.9919 17.0956 23.1924 17.8954 23.6554C26.8636 28.8753 37.9365 31.9903 49.3889 31.9903C57.0936 31.9903 65.5985 30.3908 73.4297 27.0654C74.6088 26.6021 75.577 27.865 74.4405 28.7071Z" fill="#ADBDCE"/>
<path fill-rule="evenodd" clip-rule="evenodd" d="M77.3469 25.3804C76.4626 24.2439 71.4525 24.8334 69.2208 25.1278C68.5474 25.2122 68.4209 24.6227 69.0525 24.2018C73.0522 21.3811 79.5785 22.2232 80.3362 23.1496C81.0939 24.0756 80.1257 30.6428 76.3786 33.7583C75.7889 34.2213 75.2417 33.9687 75.4944 33.3374C76.3365 31.2323 78.2311 26.5595 77.3469 25.3804ZM69.347 4.41597V1.67957C69.347 1.25869 69.6418 1.00609 70.0207 1.00609H82.2309C82.6097 1.00609 82.9464 1.30084 82.9464 1.67957V3.99509C82.9464 4.37416 82.6097 4.87935 82.0203 5.72111L75.7046 14.7306C78.0624 14.6884 80.5467 15.0254 82.6519 16.2044C83.1147 16.4566 83.2413 16.8775 83.2834 17.2566V20.1613C83.2834 20.5825 82.8624 21.0455 82.3992 20.7929C78.6521 18.8143 73.6416 18.6039 69.5157 20.8351C69.0946 21.0455 68.6314 20.6246 68.6314 20.2034V17.4245C68.6314 17.0036 68.6314 16.2458 69.0946 15.5724L76.4205 5.08979H70.0629C69.684 5.08979 69.347 4.79503 69.347 4.41597ZM24.8438 21.3817H21.1385C20.8018 21.3399 20.507 21.087 20.4648 20.7504V1.72172C20.4648 1.343 20.8018 1.04825 21.1807 1.04825H24.6333C25.0121 1.04825 25.2648 1.343 25.307 1.67957V4.16337H25.391C26.2755 1.76388 28.0015 0.627366 30.275 0.627366C32.5906 0.627366 34.0642 1.76388 35.075 4.16337C35.9592 1.76388 38.0222 0.627366 40.2117 0.627366C41.7693 0.627366 43.4534 1.25869 44.506 2.73211C45.685 4.332 45.4324 6.64752 45.4324 8.71011V20.7504C45.4324 21.1291 45.0957 21.4239 44.7165 21.4239H41.0537C40.6745 21.3817 40.38 21.0873 40.38 20.7504V10.6466C40.38 9.84696 40.464 7.82585 40.2957 7.0684C40.0011 5.80542 39.2009 5.4267 38.1062 5.4267C37.2223 5.4267 36.2537 6.01586 35.8749 6.98409C35.496 7.95232 35.5378 9.55221 35.5378 10.6466V20.7504C35.5378 21.1291 35.2011 21.4239 34.8223 21.4239H31.117C30.7382 21.3817 30.4433 21.0873 30.4433 20.7504V10.6466C30.4433 8.54182 30.7803 5.3842 28.1702 5.3842C25.5175 5.3842 25.6015 8.41535 25.6015 10.6466V20.7504C25.5593 21.0873 25.2648 21.3817 24.8438 21.3817ZM93.4725 0.627366C98.988 0.627366 101.977 5.34238 101.977 11.3625C101.977 17.1719 98.6931 21.803 93.4725 21.803C88.0831 21.803 85.1359 17.0879 85.1359 11.1939C85.0937 5.25807 88.0831 0.627366 93.4725 0.627366ZM93.4725 4.54244C90.7358 4.54244 90.5671 8.28923 90.5671 10.6048C90.5671 12.9199 90.5253 17.8879 93.4303 17.8879C96.2932 17.8879 96.4618 13.8882 96.4618 11.4465C96.4618 9.84696 96.3775 7.91016 95.9143 6.39458C95.4933 5.04763 94.6512 4.54244 93.4725 4.54244ZM109.093 21.3817H105.388C105.009 21.3399 104.714 21.0452 104.714 20.7083V1.63741C104.756 1.30084 105.051 1.00609 105.43 1.00609H108.882C109.219 1.00609 109.472 1.25869 109.556 1.55344V4.45813H109.64C110.693 1.84819 112.124 0.627366 114.693 0.627366C116.335 0.627366 117.976 1.21687 119.029 2.85858C119.998 4.37416 119.998 6.94193 119.998 8.79442V20.7926C119.955 21.1295 119.661 21.3821 119.282 21.3821H115.577C115.24 21.3399 114.945 21.0873 114.903 20.7926V10.4361C114.903 8.33138 115.156 5.30023 112.587 5.30023C111.703 5.30023 110.861 5.88973 110.44 6.81581C109.935 7.99482 109.851 9.13133 109.851 10.4361V20.7083C109.809 21.0873 109.472 21.3817 109.093 21.3817ZM59.6212 12.2886C59.6212 13.7199 59.6633 14.9407 58.9474 16.2458C58.3581 17.298 57.4317 17.9297 56.3791 17.9297C54.9477 17.9297 54.1056 16.8353 54.1056 15.2358C54.1056 12.0782 56.9266 11.4887 59.6212 11.4887V12.2886ZM63.3682 21.3399C63.1159 21.5504 62.7789 21.5925 62.4844 21.4239C61.2631 20.4135 61.0107 19.9083 60.337 18.9401C58.3159 21.003 56.8423 21.6343 54.2318 21.6343C51.1162 21.6343 48.6744 19.6979 48.6744 15.8671C48.6744 12.836 50.3163 10.8152 52.632 9.80481C54.6531 8.92055 57.4738 8.75226 59.6212 8.49967V8.03663C59.6212 7.15237 59.7055 6.10017 59.158 5.34238C58.6948 4.66857 57.8527 4.37416 57.095 4.37416C55.6635 4.37416 54.4005 5.08979 54.1056 6.60537C54.0213 6.94193 53.8107 7.27884 53.4741 7.27884L49.8953 6.89978C49.6005 6.81581 49.2638 6.60502 49.3481 6.14233C50.1902 1.76388 54.1056 0.45874 57.6422 0.45874C59.4528 0.45874 61.8106 0.921777 63.2421 2.31123C65.0527 3.99509 64.884 6.26846 64.884 8.71011V14.4777C64.884 16.2037 65.5999 16.9615 66.2736 17.9297C66.5263 18.2666 66.5681 18.6875 66.2736 18.8979C65.4737 19.5296 64.1263 20.7083 63.3682 21.3399ZM10.9917 12.2883C10.9917 13.7199 11.0338 14.941 10.3179 16.2458C9.72858 17.298 8.80252 17.9297 7.74995 17.9297C6.31818 17.9297 5.47612 16.8353 5.47612 15.2358C5.47612 12.0782 8.29715 11.4887 10.9917 11.4887V12.2883ZM14.6969 21.3399C14.4442 21.5504 14.1072 21.5925 13.8123 21.4239C12.5918 20.4135 12.3391 19.9083 11.6654 18.9401C9.64423 21.003 8.17063 21.6343 5.56046 21.6343C2.44458 21.6343 0.00274658 19.6979 0.00274658 15.8671C0.00274658 12.836 1.64503 10.8152 3.96035 9.80481C5.98149 8.92055 8.80218 8.75226 10.9495 8.49967V8.03663C10.9495 7.15237 11.0338 6.10017 10.4866 5.34238C10.0234 4.66857 9.18138 4.37416 8.42332 4.37416C6.99189 4.37416 5.72846 5.08979 5.43395 6.60537C5.34995 6.94193 5.13909 7.27884 4.8024 7.27884L1.224 6.89978C0.929147 6.81581 0.592461 6.60502 0.676804 6.14233C1.51852 1.76388 5.43395 0.45874 8.97086 0.45874C10.7811 0.45874 13.139 0.921777 14.5704 2.31123C16.3807 3.99509 16.2127 6.26846 16.2127 8.71011V14.4777C16.2127 16.2037 16.9282 16.9615 17.6019 17.9297C17.8546 18.2666 17.8968 18.6875 17.6019 18.8979C16.8021 19.5296 15.4546 20.7083 14.6969 21.3399Z" fill="#ADBDCE"/>
</g>
</g>
</g>
<defs>
<clipPath id="clip0_2_17189">
<rect width="120" height="36.39" fill="white" transform="translate(0 0.304932)"/>
</clipPath>
<clipPath id="clip1_2_17189">
<rect width="120" height="36.33" fill="white" transform="translate(0 0.304932)"/>
</clipPath>
</defs>
</svg>
