<svg width="33" height="33" viewBox="0 0 33 33" fill="none" xmlns="http://www.w3.org/2000/svg">
<path d="M16.5006 30.2143C20.1378 30.2143 23.6261 28.7694 26.198 26.1975C28.7699 23.6256 30.2148 20.1373 30.2148 16.5001C30.2148 12.8628 28.7699 9.37452 26.198 6.80259C23.6261 4.23066 20.1378 2.78577 16.5006 2.78577C12.8633 2.78577 9.37502 4.23066 6.80309 6.80259C4.23116 9.37452 2.78627 12.8628 2.78627 16.5001C2.78627 20.1373 4.23116 23.6256 6.80309 26.1975C9.37502 28.7694 12.8633 30.2143 16.5006 30.2143ZM22.5541 13.9822L15.697 20.8393C15.1934 21.3429 14.3791 21.3429 13.8809 20.8393L10.4523 17.4108C9.94877 16.9072 9.94877 16.0929 10.4523 15.5947C10.9559 15.0965 11.7702 15.0911 12.2684 15.5947L14.7863 18.1126L20.7327 12.1608C21.2363 11.6572 22.0506 11.6572 22.5488 12.1608C23.047 12.6643 23.0523 13.4786 22.5488 13.9768L22.5541 13.9822Z" fill="url(#paint0_linear_2_17358)"/>
<defs>
<linearGradient id="paint0_linear_2_17358" x1="16.5006" y1="2.78577" x2="16.5006" y2="30.2143" gradientUnits="userSpaceOnUse">
<stop stop-color="white" stop-opacity="0.5"/>
<stop offset="1" stop-color="white" stop-opacity="0.2"/>
</linearGradient>
</defs>
</svg>
