<svg width="64" height="64" viewBox="0 0 64 64" fill="none" xmlns="http://www.w3.org/2000/svg">
<rect width="64" height="64" rx="32" fill="url(#paint0_linear_2_17251)"/>
<path d="M32 16C33.1063 16 34 16.8937 34 18V18.65C39.8563 19.5188 44.4813 24.15 45.35 30H46C47.1063 30 48 30.8938 48 32C48 33.1063 47.1063 34 46 34H45.35C44.4813 39.8563 39.85 44.4813 34 45.35V46C34 47.1063 33.1063 48 32 48C30.8938 48 30 47.1063 30 46V45.35C24.1438 44.4813 19.5188 39.8563 18.65 34H18C16.8937 34 16 33.1063 16 32C16 30.8938 16.8937 30 18 30H18.65C19.5188 24.1438 24.1438 19.5188 30 18.65V18C30 16.8937 30.8938 16 32 16ZM22.7125 34C23.4938 37.6437 26.3625 40.5063 30 41.2875V40C30 38.8937 30.8938 38 32 38C33.1063 38 34 38.8937 34 40V41.2875C37.6437 40.5063 40.5063 37.6375 41.2875 34H40C38.8937 34 38 33.1063 38 32C38 30.8938 38.8937 30 40 30H41.2875C40.5063 26.3562 37.6437 23.4938 34 22.7125V24C34 25.1062 33.1063 26 32 26C30.8938 26 30 25.1062 30 24V22.7125C26.3562 23.4938 23.4938 26.3562 22.7125 30H24C25.1062 30 26 30.8938 26 32C26 33.1063 25.1062 34 24 34H22.7125ZM32 30C32.5304 30 33.0391 30.2107 33.4142 30.5858C33.7893 30.9609 34 31.4696 34 32C34 32.5304 33.7893 33.0391 33.4142 33.4142C33.0391 33.7893 32.5304 34 32 34C31.4696 34 30.9609 33.7893 30.5858 33.4142C30.2107 33.0391 30 32.5304 30 32C30 31.4696 30.2107 30.9609 30.5858 30.5858C30.9609 30.2107 31.4696 30 32 30Z" fill="white"/>
<defs>
<linearGradient id="paint0_linear_2_17251" x1="35.0591" y1="-0.0965367" x2="6.58048" y2="48.8105" gradientUnits="userSpaceOnUse">
<stop stop-color="#1F65E8"/>
<stop offset="1" stop-color="#003DAE"/>
</linearGradient>
</defs>
</svg>
