<svg width="64" height="64" viewBox="0 0 64 64" fill="none" xmlns="http://www.w3.org/2000/svg">
<rect width="64" height="64" rx="32" fill="url(#paint0_linear_2_17223)"/>
<path d="M20.0023 31.9969L21.7833 17.7497C21.9082 16.7499 22.7581 16 23.7704 16H34.3058C35.2431 16 35.9992 16.7561 35.9992 17.6934C35.9992 17.8934 35.9617 18.0996 35.893 18.2871L32.9998 25.998H41.7044C42.9666 25.998 43.9977 27.0228 43.9977 28.2914C43.9977 28.7538 43.8602 29.2037 43.5977 29.5848L31.5876 47.1439C31.2189 47.6813 30.6128 48 29.9692 48H29.7879C28.8069 48 28.007 47.2002 28.007 46.2191C28.007 46.0754 28.0258 45.9317 28.0633 45.7879L31.0002 33.9965H22.002C20.8959 33.9965 20.0023 33.1029 20.0023 31.9969Z" fill="white"/>
<defs>
<linearGradient id="paint0_linear_2_17223" x1="35.0591" y1="-0.0965367" x2="6.58048" y2="48.8105" gradientUnits="userSpaceOnUse">
<stop stop-color="#1F65E8"/>
<stop offset="1" stop-color="#003DAE"/>
</linearGradient>
</defs>
</svg>
