<svg width="64" height="64" viewBox="0 0 64 64" fill="none" xmlns="http://www.w3.org/2000/svg">
<rect width="64" height="64" rx="32" fill="url(#paint0_linear_2_17258)"/>
<path d="M23.1111 17.7778C22.1278 17.7778 21.3333 18.5723 21.3333 19.5556V21.3334H18.6667C17.1944 21.3334 16 22.5278 16 24.0001V26.6667H40.8889V24.0001C40.8889 22.5278 39.6944 21.3334 38.2222 21.3334H35.5556V19.5556C35.5556 18.5723 34.7611 17.7778 33.7778 17.7778C32.7944 17.7778 32 18.5723 32 19.5556V21.3334H24.8889V19.5556C24.8889 18.5723 24.0944 17.7778 23.1111 17.7778ZM30.2222 38.2223C30.2222 33.1223 34.1278 28.9334 39.1111 28.4834V28.4445H16V43.5556C16 45.0278 17.1944 46.2223 18.6667 46.2223H34.3778C31.8667 44.4501 30.2222 41.5278 30.2222 38.2223ZM48 38.2223C48 36.1005 47.1571 34.0657 45.6569 32.5654C44.1566 31.0651 42.1217 30.2223 40 30.2223C37.8783 30.2223 35.8434 31.0651 34.3431 32.5654C32.8429 34.0657 32 36.1005 32 38.2223C32 40.344 32.8429 42.3788 34.3431 43.8791C35.8434 45.3794 37.8783 46.2223 40 46.2223C42.1217 46.2223 44.1566 45.3794 45.6569 43.8791C47.1571 42.3788 48 40.344 48 38.2223ZM44.3167 42.7056C43.1944 43.7834 41.6778 44.4445 40 44.4445C38.3222 44.4445 36.8056 43.7834 35.6833 42.7056C36.0278 41.6501 37.0167 40.8889 38.1889 40.8889H41.8111C42.9778 40.8889 43.9722 41.6501 44.3167 42.7056ZM37.3333 36.4445C37.3333 35.7373 37.6143 35.059 38.1144 34.5589C38.6145 34.0588 39.2928 33.7778 40 33.7778C40.7072 33.7778 41.3855 34.0588 41.8856 34.5589C42.3857 35.059 42.6667 35.7373 42.6667 36.4445C42.6667 37.1517 42.3857 37.83 41.8856 38.3301C41.3855 38.8302 40.7072 39.1112 40 39.1112C39.2928 39.1112 38.6145 38.8302 38.1144 38.3301C37.6143 37.83 37.3333 37.1517 37.3333 36.4445Z" fill="white"/>
<defs>
<linearGradient id="paint0_linear_2_17258" x1="35.0591" y1="-0.0965367" x2="6.58048" y2="48.8105" gradientUnits="userSpaceOnUse">
<stop stop-color="#1F65E8"/>
<stop offset="1" stop-color="#003DAE"/>
</linearGradient>
</defs>
</svg>
