<svg width="64" height="64" viewBox="0 0 64 64" fill="none" xmlns="http://www.w3.org/2000/svg">
<rect width="64" height="64" rx="32" fill="url(#paint0_linear_2_17237)"/>
<path d="M22.4 21.6C22.4 20.9634 22.1471 20.353 21.6971 19.9029C21.247 19.4528 20.6365 19.2 20 19.2C19.3635 19.2 18.753 19.4528 18.3029 19.9029C17.8529 20.353 17.6 20.9634 17.6 21.6C17.6 22.2365 17.8529 22.8469 18.3029 23.297C18.753 23.7471 19.3635 24 20 24C20.6365 24 21.247 23.7471 21.6971 23.297C22.1471 22.8469 22.4 22.2365 22.4 21.6ZM44.8 25.6H40V24H44.8V25.6ZM29.6 20.8C28.275 20.8 27.2 21.875 27.2 23.2V26.4C27.2 27.725 28.275 28.8 29.6 28.8H45.6C46.925 28.8 48 27.725 48 26.4V23.2C48 21.875 46.925 20.8 45.6 20.8H29.6ZM44.8 40H33.6V38.4H44.8V40ZM29.6 35.2C28.275 35.2 27.2 36.275 27.2 37.6V40.8C27.2 42.125 28.275 43.2 29.6 43.2H45.6C46.925 43.2 48 42.125 48 40.8V37.6C48 36.275 46.925 35.2 45.6 35.2H29.6ZM19.2 25.6C17.435 25.6 16 27.035 16 28.8C16 29.685 16.715 30.4 17.6 30.4H22.4C23.285 30.4 24 29.685 24 28.8C24 27.035 22.565 25.6 20.8 25.6H19.2ZM22.4 36C22.4 35.3634 22.1471 34.753 21.6971 34.3029C21.247 33.8528 20.6365 33.6 20 33.6C19.3635 33.6 18.753 33.8528 18.3029 34.3029C17.8529 34.753 17.6 35.3634 17.6 36C17.6 36.6365 17.8529 37.2469 18.3029 37.697C18.753 38.1471 19.3635 38.4 20 38.4C20.6365 38.4 21.247 38.1471 21.6971 37.697C22.1471 37.2469 22.4 36.6365 22.4 36ZM19.2 40C17.435 40 16 41.435 16 43.2C16 44.085 16.715 44.8 17.6 44.8H22.4C23.285 44.8 24 44.085 24 43.2C24 41.435 22.565 40 20.8 40H19.2Z" fill="white"/>
<defs>
<linearGradient id="paint0_linear_2_17237" x1="35.0591" y1="-0.0965367" x2="6.58048" y2="48.8105" gradientUnits="userSpaceOnUse">
<stop stop-color="#1F65E8"/>
<stop offset="1" stop-color="#003DAE"/>
</linearGradient>
</defs>
</svg>
