<svg width="64" height="64" viewBox="0 0 64 64" fill="none" xmlns="http://www.w3.org/2000/svg">
<rect width="64" height="64" rx="32" fill="url(#paint0_linear_2_17244)"/>
<path d="M24 20.8C25.3791 20.8 26.7018 21.3479 27.677 22.3231C28.6521 23.2983 29.2 24.6209 29.2 26C29.2 27.3792 28.6521 28.7018 27.677 29.677C26.7018 30.6522 25.3791 31.2 24 31.2C22.6209 31.2 21.2982 30.6522 20.323 29.677C19.3479 28.7018 18.8 27.3792 18.8 26C18.8 24.6209 19.3479 23.2983 20.323 22.3231C21.2982 21.3479 22.6209 20.8 24 20.8ZM40 20.8C41.3791 20.8 42.7018 21.3479 43.677 22.3231C44.6521 23.2983 45.2 24.6209 45.2 26C45.2 27.3792 44.6521 28.7018 43.677 29.677C42.7018 30.6522 41.3791 31.2 40 31.2C38.6209 31.2 37.2982 30.6522 36.323 29.677C35.3479 28.7018 34.8 27.3792 34.8 26C34.8 24.6209 35.3479 23.2983 36.323 22.3231C37.2982 21.3479 38.6209 20.8 40 20.8ZM16 40C16 36.465 18.865 33.6 22.4 33.6H25.6C29.135 33.6 32 36.465 32 40V40.8C32 42.125 30.925 43.2 29.6 43.2H18.4C17.075 43.2 16 42.125 16 40.8V40ZM38.4 43.2C36.485 43.2 34.765 42.36 33.595 41.025C33.6 40.95 33.6 40.875 33.6 40.8V40C33.6 38.255 33.04 36.645 32.095 35.33C32.385 34.33 33.305 33.6 34.4 33.6H45.6C46.925 33.6 48 34.675 48 36V36.8C48 40.335 45.135 43.2 41.6 43.2H38.4Z" fill="white"/>
<defs>
<linearGradient id="paint0_linear_2_17244" x1="35.0591" y1="-0.0965367" x2="6.58048" y2="48.8105" gradientUnits="userSpaceOnUse">
<stop stop-color="#1F65E8"/>
<stop offset="1" stop-color="#003DAE"/>
</linearGradient>
</defs>
</svg>
