<svg width="64" height="64" viewBox="0 0 64 64" fill="none" xmlns="http://www.w3.org/2000/svg">
<rect width="64" height="64" rx="32" fill="url(#paint0_linear_2_17209)"/>
<path d="M27.5 20H36.5C36.775 20 37 20.225 37 20.5V23H27V20.5C27 20.225 27.225 20 27.5 20ZM24 20.5V23H20C17.7938 23 16 24.7937 16 27V33H28H36H48V27C48 24.7937 46.2062 23 44 23H40V20.5C40 18.5688 38.4312 17 36.5 17H27.5C25.5688 17 24 18.5688 24 20.5ZM48 35H36V37C36 38.1063 35.1063 39 34 39H30C28.8938 39 28 38.1063 28 37V35H16V43C16 45.2062 17.7938 47 20 47H44C46.2062 47 48 45.2062 48 43V35Z" fill="white"/>
<defs>
<linearGradient id="paint0_linear_2_17209" x1="35.0591" y1="-0.0965367" x2="6.58048" y2="48.8105" gradientUnits="userSpaceOnUse">
<stop stop-color="#1F65E8"/>
<stop offset="1" stop-color="#003DAE"/>
</linearGradient>
</defs>
</svg>
