<svg width="64" height="64" viewBox="0 0 64 64" fill="none" xmlns="http://www.w3.org/2000/svg">
<rect width="64" height="64" rx="32" fill="url(#paint0_linear_2_17216)"/>
<path d="M27.2015 31.9962C28.8991 31.9962 30.5272 31.3218 31.7276 30.1214C32.928 28.921 33.6024 27.2929 33.6024 25.5953C33.6024 23.8977 32.928 22.2696 31.7276 21.0692C30.5272 19.8688 28.8991 19.1945 27.2015 19.1945C25.5039 19.1945 23.8758 19.8688 22.6754 21.0692C21.475 22.2696 20.8007 23.8977 20.8007 25.5953C20.8007 27.2929 21.475 28.921 22.6754 30.1214C23.8758 31.3218 25.5039 31.9962 27.2015 31.9962ZM24.9162 34.3965C19.9905 34.3965 16 38.3871 16 43.3128C16 44.1329 16.6651 44.798 17.4852 44.798H36.9179C37.738 44.798 38.4031 44.1329 38.4031 43.3128C38.4031 43.2727 38.4031 43.2377 38.4031 43.1977C33.9825 43.1977 30.402 39.6172 30.402 35.1966C30.402 34.9416 30.412 34.6916 30.437 34.4465C30.1269 34.4115 29.8069 34.3965 29.4868 34.3965H24.9162ZM38.4031 31.2011C38.9284 31.2011 39.4486 31.3046 39.934 31.5056C40.4194 31.7067 40.8604 32.0013 41.2319 32.3728C41.6034 32.7443 41.898 33.1853 42.0991 33.6707C42.3001 34.1561 42.4036 34.6763 42.4036 35.2016C42.4036 35.727 42.3001 36.2472 42.0991 36.7326C41.898 37.218 41.6034 37.659 41.2319 38.0305C40.8604 38.4019 40.4194 38.6966 39.934 38.8977C39.4486 39.0987 38.9284 39.2022 38.4031 39.2022C37.342 39.2022 36.3245 38.7807 35.5742 38.0305C34.824 37.2802 34.4025 36.2627 34.4025 35.2016C34.4025 34.1406 34.824 33.1231 35.5742 32.3728C36.3245 31.6226 37.342 31.2011 38.4031 31.2011ZM38.4031 41.6025C39.7382 41.6025 40.9734 41.1925 41.9986 40.4974L45.9541 44.4529C46.4242 44.923 47.1843 44.923 47.6493 44.4529C48.1144 43.9828 48.1194 43.2227 47.6493 42.7577L43.6938 38.8021C44.3939 37.777 44.7989 36.5368 44.7989 35.2066C44.7989 31.6712 41.9335 28.8058 38.3981 28.8058C34.8626 28.8058 31.9972 31.6712 31.9972 35.2066C31.9972 38.7421 34.8626 41.6075 38.3981 41.6075L38.4031 41.6025Z" fill="white"/>
<defs>
<linearGradient id="paint0_linear_2_17216" x1="35.0591" y1="-0.0965367" x2="6.58048" y2="48.8105" gradientUnits="userSpaceOnUse">
<stop stop-color="#1F65E8"/>
<stop offset="1" stop-color="#003DAE"/>
</linearGradient>
</defs>
</svg>
