<svg width="64" height="64" viewBox="0 0 64 64" fill="none" xmlns="http://www.w3.org/2000/svg">
<rect width="64" height="64" rx="32" fill="url(#paint0_linear_2_17230)"/>
<path d="M24 24C24 26.1217 24.8429 28.1566 26.3431 29.6569C27.8434 31.1571 29.8783 32 32 32C34.1217 32 36.1566 31.1571 37.6569 29.6569C39.1571 28.1566 40 26.1217 40 24C40 21.8783 39.1571 19.8434 37.6569 18.3431C36.1566 16.8429 34.1217 16 32 16C29.8783 16 27.8434 16.8429 26.3431 18.3431C24.8429 19.8434 24 21.8783 24 24ZM29.9062 36.5125L31.0688 38.45L28.9875 46.1938L26.7375 37.0125C26.6125 36.5063 26.125 36.175 25.6188 36.3062C21.2438 37.4 18 41.3625 18 46.0812C18 47.1437 18.8625 48 19.9188 48H28.15C28.15 48 28.15 48 28.1562 48H28.5H35.5H35.8438C35.8438 48 35.8438 48 35.85 48H44.0812C45.1437 48 46 47.1375 46 46.0812C46 41.3625 42.7563 37.4 38.3813 36.3062C37.875 36.1812 37.3875 36.5125 37.2625 37.0125L35.0125 46.1938L32.9312 38.45L34.0938 36.5125C34.4937 35.8438 34.0125 35 33.2375 35H32H30.7688C29.9938 35 29.5125 35.85 29.9125 36.5125H29.9062Z" fill="white"/>
<defs>
<linearGradient id="paint0_linear_2_17230" x1="35.0591" y1="-0.0965367" x2="6.58048" y2="48.8105" gradientUnits="userSpaceOnUse">
<stop stop-color="#1F65E8"/>
<stop offset="1" stop-color="#003DAE"/>
</linearGradient>
</defs>
</svg>
