<svg width="200" height="45" viewBox="0 0 200 45" fill="none" xmlns="http://www.w3.org/2000/svg">
<g clip-path="url(#clip0_2_18045)">
<g clip-path="url(#clip1_2_18045)">
<g clip-path="url(#clip2_2_18045)">
<g clip-path="url(#clip3_2_18045)">
<path d="M2.23022 19.3573L4.09046 14.896L5.8859 10.5899L6.19119 10.9988L6.55603 11.4867L4.98054 15.2646L3.16297 19.6263L2.78076 19.516L2.23102 19.357L2.23022 19.3573ZM10.366 6.25866L14.4754 4.56758L18.9316 2.73355L19.0746 3.18023L19.073 3.18469L19.2223 3.65319L14.842 5.45568L10.5675 7.21615V7.21483L10.5565 6.31883L10.3674 6.25998L10.366 6.25866ZM24.6026 2.70728L29.1388 4.58912L33.6001 6.43839L33.3524 6.93762L33.1718 7.30206L28.769 5.47566L24.2986 3.62139L24.4338 3.21413L24.6026 2.70728ZM3.15218 24.786L4.96052 29.158L6.79363 33.5901L6.41115 33.7844V33.7862L5.93384 34.0277L4.07017 29.5219L2.24576 25.1124L2.94987 24.8589L3.15218 24.786ZM10.4021 37.1715L14.7943 38.9937L19.8996 41.1115L19.7943 41.668L19.7152 42.0766L14.4237 39.8816L9.96144 38.0305L10.1972 37.5701L10.4013 37.1715H10.4021ZM23.4675 41.1762L28.7227 39.0137L34.2357 36.7446L34.6403 37.258L34.8536 37.5289L29.0885 39.9015L23.8771 42.0456L23.4791 41.2009L23.4673 41.1764L23.4675 41.1762ZM36.1686 34.9957L38.5831 29.2046L40.8023 23.8806L41.4346 24.2923L41.6227 24.4145L39.4721 29.5731L37.1014 35.2597L36.1675 34.9957H36.1686ZM40.6222 20.1928L38.602 15.3111L36.7724 10.8879L37.1852 10.6716L37.6285 10.4397L39.4924 14.9461L41.6409 20.1408L41.526 20.1469L40.6222 20.1928Z" fill="white"/>
<path d="M27.628 29.5244L10.914 35.5347L10.4997 35.1208L10.1635 34.7848L27.1683 28.6699L27.0843 28.9745L27.5818 29.4777L27.628 29.5244Z" fill="white"/>
<path d="M31.2325 24.2702L34.5479 10.8142L34.7367 10.9981L35.3478 11.5933L32.2422 24.1994L32.0915 24.0468L31.404 24.2257L31.2325 24.2702Z" fill="white"/>
<path fill-rule="evenodd" clip-rule="evenodd" d="M42.4854 21.7637L42.2467 21.1406L41.5787 21.1746L40.9112 21.2085L40.7374 21.8517L40.5627 22.4975L41.123 22.8604L41.684 23.2256L42.2056 22.8052L42.7246 22.3874L42.4854 21.7634V21.7637ZM40.0069 23.3636L34.4854 26.4681L34.4438 26.426L33.7837 25.7583L39.4774 22.5572L39.7408 21.585L40.0124 20.58L40.1101 20.2179L40.4853 20.199L41.5278 20.1464L42.5702 20.0939L42.9453 20.0747L43.0794 20.4244L43.4521 21.3966L43.8246 22.3688L43.9581 22.7172L43.6649 22.9537L42.8528 23.608L42.0407 24.262L41.751 24.4958L41.4375 24.2922L40.5629 23.7238L40.0069 23.3636Z" fill="white"/>
<path fill-rule="evenodd" clip-rule="evenodd" d="M22.5454 41.6401L22.2598 41.0357L21.5968 41.1195L20.9335 41.2033L20.8084 41.8576L20.6833 42.5145L21.2694 42.8353L21.8557 43.1566L22.3428 42.7003L22.8304 42.2431L22.5454 41.6388V41.6401ZM22.2761 39.9968L28.6021 30.5095L29.2933 31.2085L23.1273 40.4556L23.4792 41.2007L23.9238 42.1427L24.0837 42.4814L23.8108 42.7373L23.0501 43.4505L22.2893 44.1635L22.0157 44.42L21.6872 44.2401L20.7723 43.7387L19.8574 43.2376L19.5287 43.0574L19.5988 42.6911L19.794 41.6682L19.9892 40.6453L20.0595 40.2774L20.4317 40.2303L21.4675 40.099L22.2761 39.9968Z" fill="white"/>
<path fill-rule="evenodd" clip-rule="evenodd" d="M36.0225 35.4892L35.377 35.3054L35.0048 35.8592L34.6324 36.4128L35.0462 36.9383L35.4592 37.4639L36.0869 37.234L36.7152 37.0037L36.6902 36.3363L36.6639 35.671L36.0214 35.4892H36.0225ZM35.297 34.2136L36.3014 34.4978L37.3055 34.7819L37.6669 34.8842L37.6811 35.2593L37.7207 36.3001L37.7599 37.3406L37.7739 37.7135L37.4225 37.8424L36.4426 38.2012L35.4627 38.5601L35.1105 38.689L34.8787 38.3948L34.2339 37.5763L33.5888 36.7573L33.3575 36.4635L33.5666 36.1527L34.148 35.288L34.4804 34.793L32.8939 31.0881L33.1739 31.0153L33.8363 30.8433L35.2775 34.2081L35.297 34.2136Z" fill="white"/>
<path fill-rule="evenodd" clip-rule="evenodd" d="M7.13554 6.54467L8.23504 6.88626L9.33455 7.22784L9.34877 8.37634L9.35457 8.85035L13.6782 11.2661L16.0306 10.3015L20.4428 3.35352L20.3113 2.9917L19.9191 1.91152L20.8276 1.20602L21.7364 0.5L22.6899 1.14375L23.6438 1.7875L23.3248 2.89159L23.0055 3.99516L21.8544 4.03353L21.2754 4.05297L17.2212 10.4372L18.5356 11.5447L34.1983 8.00717L34.4585 7.48192L34.9688 6.45219L36.1084 6.61799L37.2481 6.78378L37.442 7.91625L37.6359 9.04873L36.6162 9.58266L35.5965 10.1165L34.7723 9.31413L34.4941 9.04321L18.6065 12.6314L18.0562 14.7881L29.7848 25.9168L30.437 25.7476L31.7129 25.4157L32.6389 26.3522L33.5648 27.2887L33.2147 28.557L32.8646 29.825L31.5886 30.1566L30.3127 30.4882L29.3867 29.5518L28.4608 28.6153L28.811 27.3472L29.0009 26.6588L17.1751 15.4379L14.5802 16.4148L8.50767 34.8713L8.81166 35.1749L9.62538 35.988L9.10168 37.0111L8.57774 38.034L7.44032 37.8533L6.30315 37.6727L6.12376 36.5379L5.9449 35.4028L6.97144 34.8825L7.44716 34.6413L13.5152 16.197L12.6491 15.2569L3.56047 21.5427L3.58076 22.1639L3.6179 23.3121L2.53474 23.7023L1.45131 24.0922L0.744566 23.1852L0.0380859 22.2782L0.684507 21.3276L1.33092 20.3769L2.43727 20.6963L2.75785 20.7888L12.4776 14.0665L12.9594 12.0993L8.73263 9.73796L8.27192 9.89352L7.18111 10.2616L6.49282 9.34066L5.80451 8.41969L6.47016 7.48218L7.13554 6.54467Z" fill="white"/>
<path d="M74.4825 8.75708V36.4267H73.6919V22.75H53.5326V36.4267H52.7421V8.75708H53.5326V21.999H73.6919V8.75708H74.4825Z" fill="white" stroke="white" stroke-width="1.3176"/>
<path d="M79.7529 14.2908H80.5434V36.3869H79.7529V14.2908Z" fill="white" stroke="white" stroke-width="1.3176"/>
<path d="M101.665 36.3869L96.0121 28.6394C95.2742 28.7975 94.431 28.8766 93.4823 28.8766H86.6044V36.3869H85.8138V14.2908H93.4823C96.2492 14.2908 98.4101 14.9364 99.9649 16.2276C101.52 17.4925 102.297 19.2713 102.297 21.5639C102.297 23.3559 101.823 24.8447 100.874 26.0306C99.9253 27.2164 98.5814 28.0333 96.8422 28.4813L102.613 36.3869H101.665ZM93.5218 28.1256C96.1043 28.1256 98.0807 27.559 99.451 26.4259C100.821 25.2664 101.506 23.6457 101.506 21.5639C101.506 19.4821 100.821 17.8746 99.451 16.7415C98.0807 15.6084 96.1043 15.0418 93.5218 15.0418H86.6044V28.1256H93.5218Z" fill="white" stroke="white" stroke-width="1.3176"/>
<path d="M122.865 35.6359V36.3869H107.884V14.2908H122.39V15.0418H108.674V24.8052H120.967V25.5563H108.674V35.6359H122.865Z" fill="white" stroke="white" stroke-width="1.3176"/>
<path d="M137.859 36.4002C135.856 36.4002 133.972 36.0444 132.207 35.3329C130.441 34.5951 129.084 33.6464 128.135 32.4869L128.689 31.973C129.585 33.0271 130.863 33.9099 132.523 34.6214C134.183 35.3066 135.949 35.6491 137.82 35.6491C140.692 35.6491 142.853 35.0826 144.302 33.9494C145.778 32.79 146.516 31.3011 146.516 29.4828C146.516 28.0598 146.134 26.9266 145.369 26.0834C144.605 25.2401 143.656 24.6077 142.523 24.186C141.417 23.7644 139.915 23.3296 138.017 22.8816C135.988 22.3809 134.381 21.9066 133.195 21.4586C132.009 20.9843 130.994 20.2728 130.151 19.3241C129.334 18.3491 128.926 17.0578 128.926 15.4503C128.926 14.1854 129.255 13.026 129.914 11.9719C130.573 10.9178 131.6 10.0745 132.997 9.44208C134.394 8.80963 136.12 8.49341 138.175 8.49341C139.651 8.49341 141.1 8.73058 142.523 9.20491C143.946 9.6529 145.172 10.259 146.199 11.0232L145.765 11.6556C144.684 10.8651 143.472 10.2722 142.128 9.87689C140.81 9.45526 139.506 9.24444 138.215 9.24444C135.448 9.24444 133.34 9.83736 131.89 11.0232C130.441 12.1827 129.716 13.6716 129.716 15.4899C129.716 16.9129 130.098 18.0592 130.863 18.9288C131.627 19.7721 132.575 20.4045 133.709 20.8261C134.842 21.2478 136.37 21.6958 138.294 22.1701C140.297 22.6708 141.891 23.1583 143.077 23.6326C144.263 24.0806 145.264 24.7789 146.081 25.7276C146.898 26.6499 147.306 27.9017 147.306 29.4828C147.306 30.7477 146.964 31.9072 146.279 32.9612C145.593 34.0153 144.539 34.8586 143.116 35.491C141.72 36.0971 139.967 36.4002 137.859 36.4002Z" fill="white" stroke="white" stroke-width="1.3176"/>
<path d="M152.577 14.2908H153.367V36.3869H152.577V14.2908Z" fill="white" stroke="white" stroke-width="1.3176"/>
<path d="M158.638 14.2908H167.176C169.6 14.2908 171.695 14.7651 173.461 15.7138C175.253 16.6625 176.623 17.9669 177.572 19.6271C178.52 21.2872 178.995 23.1846 178.995 25.3191C178.995 27.4536 178.52 29.3641 177.572 31.0506C176.623 32.7108 175.253 34.0152 173.461 34.9639C171.695 35.9126 169.6 36.3869 167.176 36.3869H158.638V14.2908ZM167.097 35.6359C169.416 35.6359 171.405 35.2011 173.065 34.3315C174.752 33.4355 176.03 32.2101 176.9 30.6554C177.769 29.1006 178.204 27.3218 178.204 25.3191C178.204 23.3163 177.769 21.5507 176.9 20.0223C176.03 18.4676 174.752 17.2554 173.065 16.3858C171.405 15.4898 169.416 15.0418 167.097 15.0418H159.428V35.6359H167.097Z" fill="white" stroke="white" stroke-width="1.3176"/>
<path d="M199.246 35.6359V36.3869H184.265V14.2908H198.772V15.0418H185.055V24.8052H197.349V25.5563H185.055V35.6359H199.246Z" fill="white" stroke="white" stroke-width="1.3176"/>
</g>
</g>
</g>
</g>
<defs>
<clipPath id="clip0_2_18045">
<rect width="200" height="43.92" fill="white" transform="translate(0 0.5)"/>
</clipPath>
<clipPath id="clip1_2_18045">
<rect width="200" height="43.92" fill="white" transform="translate(0 0.5)"/>
</clipPath>
<clipPath id="clip2_2_18045">
<rect width="200" height="43.92" fill="white" transform="translate(0 0.5)"/>
</clipPath>
<clipPath id="clip3_2_18045">
<rect width="199.924" height="43.92" fill="white" transform="translate(0.0380859 0.5)"/>
</clipPath>
</defs>
</svg>
