<svg width="2276" height="500" viewBox="0 0 2276 500" fill="none" xmlns="http://www.w3.org/2000/svg">
    <path
        d="M24.9562 214.676L46.1337 163.887L66.5736 114.866L70.0492 119.52L74.2026 125.075L56.2667 168.084L35.5749 217.739L31.2237 216.483L24.9652 214.673L24.9562 214.676ZM117.577 65.5572L164.359 46.3053L215.09 25.4261L216.718 30.5113L216.7 30.5621L218.4 35.8956L168.533 56.4158L119.871 76.4575V76.4425L119.745 66.2422L117.592 65.5722L117.577 65.5572ZM279.651 25.127L331.293 46.5506L382.081 67.6033L379.262 73.2867L377.205 77.4356L327.083 56.6432L276.19 35.5336L277.729 30.8972L279.651 25.127ZM35.452 276.479L56.0388 326.251L76.9075 376.708L72.5532 378.919V378.94L67.1194 381.689L45.9028 330.394L25.1331 280.194L33.1489 277.308L35.452 276.479ZM117.988 417.479L167.99 438.224L226.11 462.334L224.911 468.669L224.011 473.321L163.771 448.332L112.971 427.258L115.655 422.017L117.979 417.479H117.988ZM266.729 463.07L326.555 438.451L389.317 412.619L393.923 418.464L396.352 421.548L330.72 448.559L271.392 472.968L266.861 463.351L266.726 463.073L266.729 463.07ZM411.322 392.709L438.809 326.781L464.074 266.171L471.272 270.858L473.413 272.249L448.93 330.977L421.941 395.715L411.31 392.709H411.322ZM462.023 224.188L439.025 168.613L418.196 118.258L422.895 115.796L427.942 113.155L449.161 164.458L473.62 223.596L472.312 223.665L462.023 224.188Z"
        fill="#646464" />
    <path
        d="M314.092 330.424L123.815 398.847L119.098 394.135L115.271 390.31L308.859 320.696L307.903 324.163L313.567 329.892L314.092 330.424Z"
        fill="#999999" />
    <path
        d="M355.128 270.607L392.871 117.42L395.021 119.514L401.978 126.289L366.622 269.802L364.907 268.064L357.08 270.101L355.128 270.607Z"
        fill="#999999" />
    <path fill-rule="evenodd" clip-rule="evenodd"
        d="M483.234 242.073L480.517 234.981L472.912 235.367L465.313 235.753L463.334 243.075L461.345 250.428L467.724 254.559L474.111 258.717L480.049 253.931L485.957 249.175L483.234 242.07V242.073ZM455.018 260.287L392.16 295.629L391.686 295.151L384.171 287.55L448.99 251.107L451.989 240.039L455.081 228.597L456.193 224.475L460.464 224.26L472.333 223.662L484.199 223.064L488.47 222.845L489.996 226.827L494.239 237.894L498.48 248.962L500 252.929L496.662 255.621L487.417 263.069L478.172 270.514L474.873 273.177L471.304 270.858L461.348 264.388L455.018 260.287Z"
        fill="#373737" />
    <path fill-rule="evenodd" clip-rule="evenodd"
        d="M256.23 468.352L252.979 461.472L245.431 462.426L237.88 463.381L236.456 470.829L235.032 478.307L241.704 481.96L248.379 485.618L253.924 480.422L259.475 475.217L256.23 468.337V468.352ZM253.165 449.645L325.182 341.638L333.051 349.595L262.855 454.867L266.861 463.351L271.923 474.075L273.743 477.93L270.636 480.844L261.976 488.962L253.315 497.081L250.2 500L246.46 497.951L236.045 492.244L225.63 486.539L221.888 484.487L222.686 480.317L224.908 468.672L227.13 457.027L227.93 452.839L232.168 452.304L243.959 450.808L253.165 449.645Z"
        fill="#373737" />
    <path fill-rule="evenodd" clip-rule="evenodd"
        d="M409.658 398.329L402.31 396.235L398.073 402.541L393.833 408.843L398.544 414.826L403.246 420.809L410.392 418.191L417.544 415.571L417.26 407.973L416.96 400.399L409.646 398.329H409.658ZM401.399 383.806L412.833 387.043L424.265 390.276L428.379 391.44L428.541 395.712L428.991 407.56L429.438 419.406L429.597 423.65L425.596 425.119L414.441 429.202L403.285 433.288L399.276 434.757L396.637 431.407L389.296 422.089L381.952 412.765L379.319 409.421L381.7 405.882L388.318 396.038L392.103 390.402L374.041 348.225L377.229 347.396L384.77 345.437L401.177 383.743L401.399 383.806Z"
        fill="#373737" />
    <path fill-rule="evenodd" clip-rule="evenodd"
        d="M80.7998 68.8146L93.3169 72.7033L105.834 76.592L105.996 89.6669L106.062 95.0632L155.284 122.565L182.064 111.584L232.294 32.4854L230.797 28.3664L226.332 16.0692L236.675 8.03759L247.021 0L257.876 7.32866L268.735 14.6573L265.104 27.2267L261.469 39.7901L248.364 40.2269L241.773 40.4482L195.618 113.128L210.582 125.736L388.891 85.4641L391.854 79.4845L397.663 67.7617L410.636 69.6492L423.611 71.5367L425.819 84.4291L428.026 97.3216L416.417 103.4L404.809 109.478L395.426 100.343L392.259 97.2588L211.389 138.108L205.124 162.66L338.646 289.353L346.071 287.427L360.597 283.649L371.138 294.31L381.679 304.971L377.694 319.41L373.708 333.846L359.182 337.621L344.656 341.396L334.115 330.735L323.574 320.074L327.56 305.638L329.722 297.801L195.093 170.058L165.552 181.179L96.4206 391.294L99.8812 394.751L109.145 404.007L103.183 415.655L97.2183 427.3L84.2695 425.242L71.3236 423.187L69.2814 410.267L67.2452 397.345L78.9316 391.422L84.3474 388.676L153.428 178.7L143.568 167.997L40.1 239.557L40.331 246.629L40.7538 259.701L28.4227 264.143L16.0886 268.582L8.0428 258.256L0 247.93L7.35907 237.108L14.7181 226.285L27.3131 229.922L30.9627 230.975L141.616 154.446L147.1 132.05L98.9816 105.168L93.7367 106.939L81.3186 111.129L73.4827 100.645L65.6469 90.1604L73.2249 79.4875L80.7998 68.8146Z"
        fill="#0C64AE" />
    <path d="M847.5 94V409H838.5V253.3H609V409H600V94H609V244.75H838.5V94H847.5Z" fill="#0C64AE" stroke="#0C64AE"
        stroke-width="15" />
    <path d="M907.5 157H916.5V408.55H907.5V157Z" fill="#0C64AE" stroke="#0C64AE" stroke-width="15" />
    <path
        d="M1156.95 408.55L1092.6 320.35C1084.2 322.15 1074.6 323.05 1063.8 323.05H985.5V408.55H976.5V157H1063.8C1095.3 157 1119.9 164.35 1137.6 179.05C1155.3 193.45 1164.15 213.7 1164.15 239.8C1164.15 260.2 1158.75 277.15 1147.95 290.65C1137.15 304.15 1121.85 313.45 1102.05 318.55L1167.75 408.55H1156.95ZM1064.25 314.5C1093.65 314.5 1116.15 308.05 1131.75 295.15C1147.35 281.95 1155.15 263.5 1155.15 239.8C1155.15 216.1 1147.35 197.8 1131.75 184.9C1116.15 172 1093.65 165.55 1064.25 165.55H985.5V314.5H1064.25Z"
        fill="#0C64AE" stroke="#0C64AE" stroke-width="15" />
    <path d="M1398.3 400V408.55H1227.75V157H1392.9V165.55H1236.75V276.7H1376.7V285.25H1236.75V400H1398.3Z"
        fill="#0C64AE" stroke="#0C64AE" stroke-width="15" />
    <path
        d="M1569 408.7C1546.2 408.7 1524.75 404.65 1504.65 396.55C1484.55 388.15 1469.1 377.35 1458.3 364.15L1464.6 358.3C1474.8 370.3 1489.35 380.35 1508.25 388.45C1527.15 396.25 1547.25 400.15 1568.55 400.15C1601.25 400.15 1625.85 393.7 1642.35 380.8C1659.15 367.6 1667.55 350.65 1667.55 329.95C1667.55 313.75 1663.2 300.85 1654.5 291.25C1645.8 281.65 1635 274.45 1622.1 269.65C1609.5 264.85 1592.4 259.9 1570.8 254.8C1547.7 249.1 1529.4 243.7 1515.9 238.6C1502.4 233.2 1490.85 225.1 1481.25 214.3C1471.95 203.2 1467.3 188.5 1467.3 170.2C1467.3 155.8 1471.05 142.6 1478.55 130.6C1486.05 118.6 1497.75 109 1513.65 101.8C1529.55 94.6 1549.2 91 1572.6 91C1589.4 91 1605.9 93.7 1622.1 99.1C1638.3 104.2 1652.25 111.1 1663.95 119.8L1659 127C1646.7 118 1632.9 111.25 1617.6 106.75C1602.6 101.95 1587.75 99.55 1573.05 99.55C1541.55 99.55 1517.55 106.3 1501.05 119.8C1484.55 133 1476.3 149.95 1476.3 170.65C1476.3 186.85 1480.65 199.9 1489.35 209.8C1498.05 219.4 1508.85 226.6 1521.75 231.4C1534.65 236.2 1552.05 241.3 1573.95 246.7C1596.75 252.4 1614.9 257.95 1628.4 263.35C1641.9 268.45 1653.3 276.4 1662.6 287.2C1671.9 297.7 1676.55 311.95 1676.55 329.95C1676.55 344.35 1672.65 357.55 1664.85 369.55C1657.05 381.55 1645.05 391.15 1628.85 398.35C1612.95 405.25 1593 408.7 1569 408.7Z"
        fill="#2B2B2B" stroke="#2B2B2B" stroke-width="15" />
    <path d="M1736.55 157H1745.55V408.55H1736.55V157Z" fill="#2B2B2B" stroke="#2B2B2B" stroke-width="15" />
    <path
        d="M1805.55 157H1902.75C1930.35 157 1954.2 162.4 1974.3 173.2C1994.7 184 2010.3 198.85 2021.1 217.75C2031.9 236.65 2037.3 258.25 2037.3 282.55C2037.3 306.85 2031.9 328.6 2021.1 347.8C2010.3 366.7 1994.7 381.55 1974.3 392.35C1954.2 403.15 1930.35 408.55 1902.75 408.55H1805.55V157ZM1901.85 400C1928.25 400 1950.9 395.05 1969.8 385.15C1989 374.95 2003.55 361 2013.45 343.3C2023.35 325.6 2028.3 305.35 2028.3 282.55C2028.3 259.75 2023.35 239.65 2013.45 222.25C2003.55 204.55 1989 190.75 1969.8 180.85C1950.9 170.65 1928.25 165.55 1901.85 165.55H1814.55V400H1901.85Z"
        fill="#2B2B2B" stroke="#2B2B2B" stroke-width="15" />
    <path d="M2267.85 400V408.55H2097.3V157H2262.45V165.55H2106.3V276.7H2246.25V285.25H2106.3V400H2267.85Z"
        fill="#2B2B2B" stroke="#2B2B2B" stroke-width="15" />
</svg>