<svg width="19" height="17" viewBox="0 0 19 17" fill="none" xmlns="http://www.w3.org/2000/svg">
<path d="M13.4522 9.93522C13.3039 9.93522 13.1589 9.89123 13.0356 9.80882C12.9122 9.72641 12.8161 9.60927 12.7593 9.47223C12.7026 9.33519 12.6877 9.18438 12.7167 9.0389C12.7456 8.89341 12.817 8.75978 12.9219 8.65489C13.0268 8.55 13.1604 8.47857 13.3059 8.44963C13.4514 8.42069 13.6022 8.43554 13.7393 8.49231C13.8763 8.54907 13.9934 8.6452 14.0758 8.76854C14.1583 8.89188 14.2022 9.03688 14.2022 9.18522C14.2022 9.38413 14.1232 9.57489 13.9826 9.71555C13.8419 9.8562 13.6512 9.93522 13.4522 9.93522ZM5.16787 9.93522C5.01954 9.93522 4.87453 9.89123 4.75119 9.80882C4.62786 9.72641 4.53173 9.60927 4.47496 9.47223C4.4182 9.33519 4.40334 9.18438 4.43228 9.0389C4.46122 8.89341 4.53265 8.75978 4.63754 8.65489C4.74243 8.55 4.87607 8.47857 5.02155 8.44963C5.16704 8.42069 5.31784 8.43554 5.45488 8.49231C5.59193 8.54907 5.70906 8.6452 5.79147 8.76854C5.87388 8.89188 5.91787 9.03688 5.91787 9.18522C5.91787 9.38413 5.83885 9.57489 5.6982 9.71555C5.55755 9.8562 5.36678 9.93522 5.16787 9.93522ZM13.721 5.42022L15.2191 2.82647C15.243 2.79094 15.2592 2.75091 15.267 2.70883C15.2747 2.66676 15.2737 2.62355 15.2641 2.58187C15.2544 2.5402 15.2363 2.50094 15.2109 2.46655C15.1855 2.43215 15.1532 2.40334 15.1162 2.38191C15.0792 2.36047 15.0382 2.34687 14.9957 2.34193C14.9532 2.337 14.9101 2.34084 14.8692 2.35322C14.8282 2.3656 14.7903 2.38625 14.7576 2.4139C14.725 2.44155 14.6984 2.47561 14.6794 2.51397L13.1626 5.14115C11.9509 4.59773 10.638 4.31678 9.31006 4.31678C7.98212 4.31678 6.66921 4.59773 5.45756 5.14115L3.94068 2.51397C3.92174 2.47561 3.89513 2.44155 3.86249 2.4139C3.82985 2.38625 3.79188 2.3656 3.75093 2.35322C3.70998 2.34084 3.66693 2.337 3.62444 2.34193C3.58194 2.34687 3.54092 2.36047 3.5039 2.38191C3.46688 2.40334 3.43465 2.43215 3.40922 2.46655C3.38379 2.50094 3.36569 2.5402 3.35604 2.58187C3.34639 2.62355 3.34541 2.66676 3.35314 2.70883C3.36087 2.75091 3.37716 2.79094 3.401 2.82647L4.89912 5.42022C2.32662 6.81928 0.567559 9.42334 0.310059 12.4999H18.3101C18.0526 9.42334 16.2932 6.81928 13.721 5.42022Z" fill="white"/>
</svg>
