<svg width="13" height="17" viewBox="0 0 13 17" fill="none" xmlns="http://www.w3.org/2000/svg">
<path d="M10.2694 8.89688C10.2632 7.75 10.7819 6.88437 11.8319 6.24687C11.2444 5.40625 10.3569 4.94375 9.18506 4.85313C8.07568 4.76562 6.86318 5.5 6.41943 5.5C5.95068 5.5 4.87568 4.88438 4.03193 4.88438C2.28818 4.9125 0.435059 6.275 0.435059 9.04688C0.435059 9.86563 0.585059 10.7115 0.885059 11.5844C1.28506 12.7313 2.72881 15.5437 4.23506 15.4969C5.02256 15.4781 5.57881 14.9375 6.60381 14.9375C7.59756 14.9375 8.11318 15.4969 8.99131 15.4969C10.5101 15.475 11.8163 12.9187 12.1976 11.7688C10.1601 10.8094 10.2694 8.95625 10.2694 8.89688ZM8.50068 3.76562C9.35381 2.75312 9.27568 1.83125 9.25068 1.5C8.49756 1.54375 7.62568 2.0125 7.12881 2.59063C6.58193 3.20938 6.26006 3.975 6.32881 4.8375C7.14443 4.9 7.88818 4.48125 8.50068 3.76562Z" fill="white"/>
</svg>
