<svg width="16" height="17" viewBox="0 0 16 17" fill="none" xmlns="http://www.w3.org/2000/svg">
<path d="M1.5 2.41992C0.671875 2.41992 0 3.0918 0 3.91992C0 4.3918 0.221875 4.83555 0.6 5.11992L7.4 10.2199C7.75625 10.4855 8.24375 10.4855 8.6 10.2199L15.4 5.11992C15.7781 4.83555 16 4.3918 16 3.91992C16 3.0918 15.3281 2.41992 14.5 2.41992H1.5ZM0 5.91992V12.4199C0 13.523 0.896875 14.4199 2 14.4199H14C15.1031 14.4199 16 13.523 16 12.4199V5.91992L9.2 11.0199C8.4875 11.5543 7.5125 11.5543 6.8 11.0199L0 5.91992Z" fill="#CCCCCC"/>
</svg>
