<svg width="17" height="17" viewBox="0 0 17 17" fill="none" xmlns="http://www.w3.org/2000/svg">
<path d="M16.97 8.5C16.97 4.08125 13.3887 0.5 8.96997 0.5C4.55122 0.5 0.969971 4.08125 0.969971 8.5C0.969971 12.25 3.55435 15.4 7.03872 16.2656V10.9438H5.38872V8.5H7.03872V7.44688C7.03872 4.725 8.26997 3.4625 10.945 3.4625C11.4512 3.4625 12.3262 3.5625 12.6856 3.6625V5.875C12.4981 5.85625 12.17 5.84375 11.7606 5.84375C10.4481 5.84375 9.94185 6.34062 9.94185 7.63125V8.5H12.5543L12.1043 10.9438H9.93872V16.4406C13.9012 15.9625 16.97 12.5906 16.97 8.5Z" fill="white"/>
</svg>
