<svg width="15" height="17" viewBox="0 0 15 17" fill="none" xmlns="http://www.w3.org/2000/svg">
<path d="M13.97 1.5H1.96685C1.41685 1.5 0.969971 1.95313 0.969971 2.50938V14.4906C0.969971 15.0469 1.41685 15.5 1.96685 15.5H13.97C14.52 15.5 14.97 15.0469 14.97 14.4906V2.50938C14.97 1.95313 14.52 1.5 13.97 1.5ZM5.20122 13.5H3.12622V6.81875H5.20435V13.5H5.20122ZM4.16372 5.90625C3.4981 5.90625 2.9606 5.36562 2.9606 4.70312C2.9606 4.04063 3.4981 3.5 4.16372 3.5C4.82622 3.5 5.36685 4.04063 5.36685 4.70312C5.36685 5.36875 4.82935 5.90625 4.16372 5.90625ZM12.9793 13.5H10.9043V10.25C10.9043 9.475 10.8887 8.47813 9.82622 8.47813C8.74497 8.47813 8.57935 9.32188 8.57935 10.1938V13.5H6.50435V6.81875H8.49497V7.73125H8.5231C8.80122 7.20625 9.47935 6.65312 10.4887 6.65312C12.5887 6.65312 12.9793 8.0375 12.9793 9.8375V13.5Z" fill="white"/>
</svg>
