<svg width="10" height="17" viewBox="0 0 10 17" fill="none" xmlns="http://www.w3.org/2000/svg">
<path d="M0.5 5.41992C0.5 4.22645 0.974106 3.08186 1.81802 2.23794C2.66193 1.39403 3.80653 0.919922 5 0.919922C6.19347 0.919922 7.33807 1.39403 8.18198 2.23794C9.02589 3.08186 9.5 4.22645 9.5 5.41992C9.5 6.6134 9.02589 7.75799 8.18198 8.6019C7.33807 9.44582 6.19347 9.91992 5 9.91992C3.80653 9.91992 2.66193 9.44582 1.81802 8.6019C0.974106 7.75799 0.5 6.6134 0.5 5.41992ZM5 3.41992C5.275 3.41992 5.5 3.19492 5.5 2.91992C5.5 2.64492 5.275 2.41992 5 2.41992C3.34375 2.41992 2 3.76367 2 5.41992C2 5.69492 2.225 5.91992 2.5 5.91992C2.775 5.91992 3 5.69492 3 5.41992C3 4.3168 3.89687 3.41992 5 3.41992ZM4 15.9199V10.8293C4.325 10.8887 4.65938 10.9199 5 10.9199C5.34062 10.9199 5.675 10.8887 6 10.8293V15.9199C6 16.473 5.55312 16.9199 5 16.9199C4.44688 16.9199 4 16.473 4 15.9199Z" fill="#CCCCCC"/>
</svg>
