<svg width="16" height="17" viewBox="0 0 16 17" fill="none" xmlns="http://www.w3.org/2000/svg">
<path d="M5.15312 1.68889C4.9125 1.10764 4.27812 0.798263 3.67188 0.963888L0.921875 1.71389C0.378125 1.86389 0 2.35764 0 2.92014C0 10.6514 6.26875 16.9201 14 16.9201C14.5625 16.9201 15.0563 16.542 15.2063 15.9983L15.9563 13.2483C16.1219 12.642 15.8125 12.0076 15.2312 11.767L12.2312 10.517C11.7219 10.3045 11.1313 10.4514 10.7844 10.8795L9.52188 12.4201C7.32188 11.3795 5.54063 9.59826 4.5 7.39826L6.04063 6.13889C6.46875 5.78889 6.61562 5.20139 6.40312 4.69201L5.15312 1.69201V1.68889Z" fill="#CCCCCC"/>
</svg>
